<svg id="svg" version="1.1" xmlns="http://www.w3.org/2000/svg" xmlns:xlink="http://www.w3.org/1999/xlink" width="400" height="400" viewBox="0, 0, 400,400"><g id="svgg"><path id="path0" d="M161.600 206.267 C 161.270 206.380,160.370 206.747,159.600 207.083 C 158.830 207.420,157.570 207.965,156.800 208.295 C 156.030 208.625,154.500 209.305,153.400 209.805 C 150.884 210.948,149.496 211.545,145.000 213.416 C 133.159 218.342,124.777 225.602,120.655 234.503 C 119.882 236.174,118.530 237.600,117.720 237.600 C 117.429 237.600,116.338 237.981,115.296 238.447 C 114.253 238.912,112.815 239.542,112.100 239.847 C 111.385 240.151,110.125 240.693,109.300 241.051 C 108.475 241.409,103.105 244.019,97.368 246.851 C 91.630 249.683,86.820 252.000,86.678 252.000 C 86.537 252.000,85.382 252.469,84.111 253.042 C 82.840 253.615,81.035 254.425,80.100 254.842 C 77.085 256.186,74.605 257.384,74.400 257.595 C 74.290 257.709,73.660 258.066,73.000 258.390 C 61.377 264.091,46.636 281.083,41.152 295.100 C 40.958 295.595,40.630 296.405,40.421 296.900 C 40.213 297.395,39.491 299.510,38.817 301.600 C 38.142 303.690,37.322 306.210,36.993 307.200 C 36.210 309.562,36.241 310.109,37.200 310.800 C 37.640 311.117,38.000 311.657,38.000 312.000 C 38.000 312.343,38.360 312.883,38.800 313.200 C 39.240 313.517,39.600 314.057,39.600 314.400 C 39.600 314.743,39.960 315.283,40.400 315.600 C 40.840 315.917,41.200 316.457,41.200 316.800 C 41.200 317.143,41.550 317.676,41.979 317.985 C 42.407 318.293,42.682 318.668,42.589 318.817 C 42.428 319.079,45.888 323.933,47.714 326.007 C 48.201 326.560,48.916 327.500,49.301 328.095 C 49.687 328.689,50.632 329.806,51.401 330.575 C 52.171 331.344,52.800 332.147,52.800 332.359 C 52.800 332.572,54.240 334.199,56.000 335.976 C 57.760 337.752,59.200 339.364,59.200 339.556 C 59.200 339.749,59.921 340.558,60.801 341.353 C 61.682 342.149,62.342 342.800,62.268 342.800 C 62.194 342.800,63.303 343.970,64.733 345.400 C 66.163 346.830,67.442 348.000,67.575 348.000 C 67.708 348.000,69.375 349.485,71.280 351.300 C 73.184 353.115,75.595 355.320,76.636 356.200 C 77.678 357.080,78.758 358.025,79.037 358.300 C 79.315 358.575,79.698 358.800,79.887 358.800 C 80.077 358.800,81.028 359.520,82.000 360.400 C 82.972 361.280,83.960 362.000,84.196 362.000 C 84.431 362.000,84.883 362.360,85.200 362.800 C 85.517 363.240,85.980 363.600,86.229 363.600 C 86.478 363.600,87.246 364.140,87.937 364.800 C 88.628 365.460,89.425 366.000,89.708 366.000 C 89.991 366.000,90.483 366.360,90.800 366.800 C 91.117 367.240,91.515 367.600,91.685 367.600 C 91.854 367.600,92.812 368.225,93.813 368.989 C 94.813 369.753,96.230 370.662,96.962 371.009 C 97.693 371.356,98.669 371.991,99.129 372.420 C 99.590 372.849,100.244 373.200,100.583 373.200 C 100.922 373.200,101.200 373.347,101.200 373.526 C 101.200 373.874,103.758 375.200,104.430 375.200 C 104.652 375.200,105.220 375.560,105.692 376.000 C 106.164 376.440,106.787 376.800,107.075 376.800 C 107.364 376.800,107.600 376.980,107.600 377.200 C 107.600 377.420,107.960 377.600,108.400 377.600 C 108.840 377.600,109.200 377.780,109.200 378.000 C 109.200 378.220,109.470 378.400,109.800 378.400 C 110.130 378.400,110.400 378.580,110.400 378.800 C 110.400 379.020,110.760 379.200,111.200 379.200 C 111.640 379.200,112.000 379.380,112.000 379.600 C 112.000 379.820,112.360 380.000,112.800 380.000 C 113.240 380.000,113.600 380.180,113.600 380.400 C 113.600 380.620,113.960 380.800,114.400 380.800 C 114.840 380.800,115.200 380.980,115.200 381.200 C 115.200 381.420,115.560 381.600,116.000 381.600 C 116.440 381.600,116.800 381.780,116.800 382.000 C 116.800 382.220,117.160 382.400,117.600 382.400 C 118.040 382.400,118.400 382.580,118.400 382.800 C 118.400 383.020,118.760 383.200,119.200 383.200 C 119.640 383.200,120.000 383.347,120.000 383.528 C 120.000 383.708,120.900 384.100,122.000 384.400 C 123.100 384.700,124.000 385.092,124.000 385.272 C 124.000 385.453,124.360 385.600,124.800 385.600 C 125.240 385.600,125.600 385.780,125.600 386.000 C 125.600 386.220,125.879 386.400,126.219 386.400 C 126.560 386.400,127.584 386.760,128.494 387.200 C 129.405 387.640,130.476 388.000,130.875 388.000 C 131.274 388.000,131.600 388.180,131.600 388.400 C 131.600 388.620,132.014 388.800,132.520 388.800 C 133.026 388.800,133.611 388.949,133.820 389.130 C 134.029 389.312,135.010 389.705,136.000 390.002 C 136.990 390.300,137.984 390.680,138.210 390.846 C 138.435 391.013,139.560 391.273,140.710 391.426 C 141.859 391.578,142.800 391.860,142.800 392.052 C 142.800 392.243,143.340 392.400,144.000 392.400 C 144.660 392.400,145.200 392.580,145.200 392.800 C 145.200 393.020,145.830 393.200,146.600 393.200 C 147.370 393.200,148.000 393.380,148.000 393.600 C 148.000 393.820,148.720 394.000,149.600 394.000 C 150.480 394.000,151.200 394.180,151.200 394.400 C 151.200 394.620,151.920 394.800,152.800 394.800 C 153.680 394.800,154.400 394.980,154.400 395.200 C 154.400 395.420,155.120 395.600,156.000 395.600 C 156.880 395.600,157.600 395.780,157.600 396.000 C 157.600 396.220,158.410 396.400,159.400 396.400 C 160.390 396.400,161.200 396.580,161.200 396.800 C 161.200 397.020,161.650 397.200,162.200 397.200 C 162.750 397.200,163.200 397.020,163.200 396.800 C 163.200 396.113,164.196 396.362,164.800 397.200 C 165.364 397.982,166.272 398.364,165.817 397.628 C 165.691 397.423,165.773 397.140,166.000 397.000 C 166.227 396.860,166.309 396.577,166.182 396.371 C 166.055 396.166,165.775 395.053,165.558 393.899 C 165.130 391.612,164.751 389.788,164.000 386.400 C 163.430 383.830,162.973 381.534,162.368 378.200 C 162.128 376.880,161.782 374.990,161.600 374.000 C 160.605 368.599,160.290 366.794,159.995 364.800 C 159.816 363.590,159.466 361.340,159.219 359.800 C 157.232 347.435,155.278 329.927,154.397 316.600 C 152.954 294.748,153.315 248.327,154.949 245.683 C 155.045 245.527,155.415 243.150,155.771 240.400 C 157.087 230.236,156.980 230.565,160.069 227.250 C 164.893 222.073,167.801 213.484,165.953 209.874 C 165.459 208.910,162.766 205.982,162.419 206.032 C 162.298 206.049,161.930 206.155,161.600 206.267 M235.201 208.431 C 232.110 211.630,231.912 215.064,234.488 220.798 C 235.906 223.954,241.264 230.400,242.469 230.400 C 242.823 230.400,243.435 233.620,243.989 238.400 C 244.231 240.490,244.679 243.820,244.985 245.800 C 246.934 258.399,247.236 293.222,245.605 317.200 C 244.399 334.934,241.387 358.741,238.419 374.000 C 238.226 374.990,237.885 376.880,237.661 378.200 C 237.437 379.520,237.065 381.500,236.835 382.600 C 234.695 392.816,234.000 396.273,234.000 396.700 C 234.000 397.351,235.863 397.351,236.167 396.700 C 236.353 396.300,236.447 396.300,236.633 396.700 C 236.910 397.292,238.800 397.379,238.800 396.800 C 238.800 396.580,239.610 396.400,240.600 396.400 C 241.590 396.400,242.400 396.220,242.400 396.000 C 242.400 395.780,243.120 395.600,244.000 395.600 C 244.880 395.600,245.600 395.420,245.600 395.200 C 245.600 394.980,246.320 394.800,247.200 394.800 C 248.080 394.800,248.800 394.620,248.800 394.400 C 248.800 394.180,249.520 394.000,250.400 394.000 C 251.280 394.000,252.000 393.820,252.000 393.600 C 252.000 393.380,252.529 393.200,253.176 393.200 C 253.823 393.200,254.464 393.020,254.600 392.800 C 254.736 392.580,255.377 392.400,256.024 392.400 C 256.671 392.400,257.200 392.243,257.200 392.052 C 257.200 391.860,258.141 391.578,259.290 391.426 C 260.440 391.273,261.565 391.010,261.790 390.840 C 262.016 390.671,263.594 390.097,265.298 389.566 C 267.002 389.035,268.397 388.465,268.398 388.300 C 268.399 388.135,268.839 388.000,269.376 388.000 C 269.913 388.000,270.464 387.820,270.600 387.600 C 270.736 387.380,271.197 387.200,271.624 387.200 C 272.051 387.200,272.400 387.020,272.400 386.800 C 272.400 386.580,272.850 386.400,273.400 386.400 C 273.950 386.400,274.400 386.220,274.400 386.000 C 274.400 385.780,274.760 385.600,275.200 385.600 C 275.640 385.600,276.000 385.420,276.000 385.200 C 276.000 384.980,276.450 384.800,277.000 384.800 C 277.550 384.800,278.000 384.620,278.000 384.400 C 278.000 384.180,278.450 384.000,279.000 384.000 C 279.550 384.000,280.000 383.820,280.000 383.600 C 280.000 383.380,280.360 383.200,280.800 383.200 C 281.240 383.200,281.600 383.020,281.600 382.800 C 281.600 382.580,281.960 382.400,282.400 382.400 C 282.840 382.400,283.200 382.220,283.200 382.000 C 283.200 381.780,283.560 381.600,284.000 381.600 C 284.440 381.600,284.800 381.420,284.800 381.200 C 284.800 380.980,285.160 380.800,285.600 380.800 C 286.040 380.800,286.400 380.620,286.400 380.400 C 286.400 380.180,286.760 380.000,287.200 380.000 C 287.640 380.000,288.000 379.820,288.000 379.600 C 288.000 379.380,288.360 379.200,288.800 379.200 C 289.240 379.200,289.600 379.064,289.600 378.898 C 289.600 378.731,290.185 378.337,290.900 378.022 C 291.615 377.707,292.440 377.211,292.732 376.921 C 293.025 376.630,293.430 376.495,293.632 376.620 C 293.835 376.745,294.000 376.689,294.000 376.495 C 294.000 376.301,295.395 375.447,297.100 374.598 C 298.805 373.749,300.260 372.907,300.333 372.727 C 300.407 372.547,300.722 372.400,301.033 372.400 C 301.345 372.400,301.600 372.248,301.600 372.063 C 301.600 371.877,302.410 371.309,303.400 370.800 C 304.390 370.291,305.200 369.766,305.200 369.635 C 305.200 369.503,305.695 369.174,306.300 368.903 C 306.905 368.632,308.030 367.869,308.800 367.206 C 309.570 366.544,310.385 366.001,310.612 366.001 C 310.838 366.000,311.283 365.640,311.600 365.200 C 311.917 364.760,312.380 364.400,312.629 364.400 C 312.878 364.400,313.646 363.860,314.337 363.200 C 315.028 362.540,315.748 362.000,315.937 362.000 C 316.126 362.000,316.846 361.460,317.537 360.800 C 318.228 360.140,318.974 359.600,319.196 359.600 C 319.418 359.600,319.600 359.420,319.600 359.200 C 319.600 358.980,319.792 358.800,320.027 358.800 C 320.472 358.800,324.119 355.749,326.961 353.000 C 327.870 352.120,329.255 350.920,330.038 350.332 C 331.960 348.891,339.016 341.860,341.000 339.410 C 341.880 338.324,343.635 336.376,344.900 335.082 C 346.165 333.789,347.200 332.561,347.200 332.355 C 347.200 332.148,348.010 331.169,349.000 330.179 C 349.990 329.189,350.800 328.212,350.800 328.008 C 350.800 327.803,351.208 327.223,351.707 326.718 C 352.206 326.213,353.735 324.270,355.106 322.400 C 356.476 320.530,357.868 318.648,358.199 318.219 C 358.529 317.789,358.800 317.180,358.800 316.866 C 358.800 316.551,359.116 316.003,359.503 315.647 C 359.889 315.291,360.460 314.505,360.770 313.900 C 361.081 313.295,361.485 312.800,361.668 312.800 C 361.850 312.800,362.000 312.480,362.000 312.088 C 362.000 311.697,362.360 311.117,362.800 310.800 C 363.748 310.117,363.826 308.642,362.998 307.054 C 362.669 306.424,362.400 305.635,362.400 305.302 C 362.400 304.968,361.850 303.054,361.179 301.047 C 353.658 278.591,338.852 262.768,316.400 253.193 C 312.352 251.467,308.977 249.887,304.200 247.483 C 298.183 244.454,292.320 241.646,289.100 240.250 C 286.349 239.058,284.608 238.321,283.800 238.009 C 283.360 237.839,282.529 237.512,281.953 237.283 C 281.011 236.907,277.200 231.348,277.200 230.349 C 277.200 230.157,277.062 230.000,276.894 230.000 C 276.726 230.000,276.147 229.284,275.606 228.410 C 273.252 224.602,264.754 217.551,260.056 215.509 C 259.035 215.066,257.250 214.275,256.088 213.751 C 254.927 213.228,253.896 212.800,253.798 212.800 C 253.700 212.800,252.441 212.260,251.000 211.600 C 249.559 210.940,248.283 210.400,248.165 210.400 C 248.046 210.400,246.836 209.882,245.475 209.249 C 237.285 205.440,238.035 205.500,235.201 208.431 " stroke="none" fill="#fbcb3c" fill-rule="evenodd"></path><path id="path1" d="M155.426 246.700 C 154.709 252.459,154.358 260.125,154.168 274.200 L 153.963 289.400 155.554 286.200 C 159.898 277.462,168.023 271.601,178.961 269.315 L 180.522 268.988 178.568 267.994 C 174.082 265.712,165.903 258.747,161.902 253.800 C 160.543 252.121,156.803 246.502,156.787 246.118 C 156.711 244.219,155.680 244.659,155.426 246.700 M187.400 292.717 C 179.183 305.141,177.010 307.326,170.768 309.438 C 166.928 310.737,161.426 310.780,157.503 309.542 C 154.184 308.494,154.473 307.965,154.851 314.400 C 155.432 324.306,156.465 335.292,157.787 345.600 C 157.914 346.590,158.203 348.930,158.430 350.800 C 158.657 352.670,159.003 355.100,159.199 356.200 C 159.395 357.300,159.757 359.550,160.003 361.200 C 160.584 365.100,161.144 368.510,161.613 371.000 C 161.820 372.100,162.548 375.970,163.230 379.600 C 163.913 383.230,165.003 388.616,165.652 391.570 C 166.301 394.523,166.741 397.178,166.629 397.470 C 166.478 397.861,166.892 398.000,168.213 398.000 C 169.196 398.000,170.000 398.180,170.000 398.400 C 170.000 398.627,171.173 398.800,172.720 398.800 C 174.352 398.800,175.639 398.999,175.936 399.296 C 176.777 400.137,223.708 399.997,224.230 399.151 C 224.349 398.958,225.596 398.800,227.000 398.800 C 228.404 398.800,229.664 398.620,229.800 398.400 C 229.936 398.180,230.831 398.000,231.788 398.000 C 233.194 398.000,233.510 397.870,233.430 397.325 C 233.339 396.704,233.585 395.234,234.388 391.600 C 236.328 382.822,238.736 369.829,239.985 361.400 C 240.246 359.640,240.613 357.390,240.800 356.400 C 240.988 355.410,241.343 352.890,241.589 350.800 C 241.835 348.710,242.132 346.370,242.248 345.600 C 243.444 337.694,245.834 309.395,245.354 308.841 C 245.278 308.754,244.038 309.069,242.599 309.541 C 235.417 311.899,226.709 309.877,221.350 304.609 C 219.243 302.538,208.041 286.581,207.131 284.356 C 206.899 283.788,206.570 283.752,204.731 284.095 C 202.788 284.456,195.270 284.271,193.951 283.829 C 193.588 283.708,191.352 286.741,187.400 292.717 " stroke="none" fill="#d4dbfb" fill-rule="evenodd"></path><path id="path2" d="M173.300 0.271 C 172.365 0.367,171.600 0.616,171.600 0.823 C 171.600 1.030,171.060 1.200,170.400 1.200 C 169.740 1.200,169.200 1.380,169.200 1.600 C 169.200 1.820,168.840 2.000,168.400 2.000 C 167.960 2.000,167.600 2.180,167.600 2.400 C 167.600 2.620,167.251 2.800,166.824 2.800 C 166.397 2.800,165.936 2.980,165.800 3.200 C 165.664 3.420,165.237 3.600,164.852 3.600 C 164.466 3.600,163.764 3.960,163.292 4.400 C 162.820 4.840,162.156 5.200,161.817 5.200 C 161.478 5.200,161.200 5.380,161.200 5.600 C 161.200 5.820,160.880 6.000,160.488 6.000 C 160.097 6.000,159.517 6.360,159.200 6.800 C 158.883 7.240,158.393 7.600,158.112 7.600 C 157.830 7.600,157.600 7.758,157.600 7.951 C 157.600 8.145,157.052 8.530,156.383 8.807 C 155.713 9.085,154.614 9.826,153.940 10.456 C 153.267 11.085,152.556 11.600,152.362 11.600 C 152.167 11.600,149.801 13.845,147.104 16.589 C 138.812 25.025,137.600 26.396,137.600 27.346 C 137.600 27.862,136.318 29.846,134.579 32.021 C 132.917 34.100,130.452 37.420,129.100 39.400 C 127.748 41.380,126.498 43.060,126.321 43.133 C 126.145 43.207,126.000 43.442,126.000 43.655 C 126.000 43.869,125.311 45.069,124.469 46.322 C 123.627 47.575,122.821 48.870,122.678 49.200 C 122.535 49.530,121.875 50.700,121.211 51.800 C 118.323 56.586,112.815 68.387,110.801 74.101 C 110.432 75.147,110.011 76.122,109.865 76.268 C 109.719 76.414,109.600 76.943,109.600 77.443 C 109.600 77.943,109.420 78.464,109.200 78.600 C 108.980 78.736,108.800 79.199,108.800 79.629 C 108.800 80.059,108.638 80.723,108.439 81.105 C 108.240 81.487,107.860 82.610,107.593 83.600 C 107.327 84.590,106.963 85.760,106.785 86.200 C 106.606 86.640,106.349 87.540,106.212 88.200 C 106.076 88.860,105.792 90.075,105.582 90.900 C 98.811 117.482,98.785 152.539,105.517 178.000 C 106.999 183.603,109.510 186.123,116.299 188.819 C 118.665 189.759,120.780 190.645,121.000 190.789 C 121.220 190.933,122.750 191.477,124.400 191.998 C 126.050 192.518,127.571 193.092,127.780 193.272 C 127.989 193.452,128.563 193.600,129.056 193.600 C 129.549 193.600,130.064 193.780,130.200 194.000 C 130.336 194.220,130.966 194.400,131.600 194.400 C 132.234 194.400,132.851 194.559,132.971 194.754 C 133.092 194.949,133.687 195.200,134.295 195.312 C 135.306 195.498,138.473 196.274,142.000 197.199 C 143.841 197.682,149.505 198.814,154.118 199.622 C 157.577 200.227,157.637 200.131,155.684 197.112 C 151.399 190.491,148.238 184.302,143.981 174.200 C 141.974 169.437,139.054 160.598,137.175 153.600 C 135.112 145.916,135.303 146.255,132.833 145.899 C 126.735 145.022,123.604 141.799,122.220 134.976 C 121.865 133.229,121.113 130.180,120.548 128.200 C 117.768 118.459,121.305 109.432,129.330 105.788 C 131.325 104.883,132.159 104.653,137.400 103.570 C 144.560 102.089,150.709 100.272,153.695 98.753 C 154.077 98.559,154.563 98.400,154.775 98.400 C 155.256 98.400,161.985 95.147,164.376 93.758 C 170.396 90.262,176.860 84.910,184.800 76.847 C 187.990 73.608,191.095 70.743,191.700 70.479 C 195.424 68.857,197.245 68.400,199.982 68.400 C 202.456 68.400,205.426 69.007,206.180 69.667 C 206.389 69.850,206.807 70.000,207.108 70.000 C 208.488 70.000,211.048 72.198,216.310 77.904 C 218.351 80.116,221.321 82.978,222.910 84.262 C 224.500 85.547,225.890 86.697,226.000 86.818 C 226.110 86.939,226.830 87.471,227.600 88.000 C 228.370 88.529,229.090 89.072,229.200 89.207 C 229.635 89.742,233.170 92.000,233.572 92.000 C 233.807 92.000,234.000 92.136,234.000 92.302 C 234.000 92.469,234.585 92.859,235.300 93.170 C 236.015 93.481,236.690 93.845,236.800 93.978 C 237.067 94.301,243.286 97.304,245.812 98.330 C 250.432 100.206,257.119 102.147,262.600 103.203 C 268.672 104.372,271.580 105.458,273.835 107.397 C 274.476 107.948,275.105 108.399,275.233 108.400 C 275.361 108.400,276.222 109.421,277.147 110.669 C 278.710 112.780,279.139 113.563,280.344 116.519 C 281.120 118.422,280.913 125.006,279.991 127.773 C 278.517 132.197,278.400 132.647,278.400 133.910 C 278.400 134.599,278.239 135.576,278.042 136.081 C 277.845 136.587,277.459 137.756,277.184 138.680 C 276.126 142.242,271.907 145.340,267.335 145.912 L 265.035 146.200 263.382 152.200 C 261.016 160.785,258.893 167.182,256.015 174.400 C 254.132 179.121,250.154 187.471,248.011 191.200 C 247.063 192.850,246.087 194.560,245.843 195.000 C 245.599 195.440,244.813 196.644,244.097 197.675 C 242.534 199.928,242.796 200.181,246.096 199.605 C 251.469 198.666,256.572 197.632,258.000 197.193 C 258.550 197.024,260.080 196.668,261.400 196.401 C 262.720 196.134,264.160 195.776,264.600 195.604 C 265.040 195.432,266.210 195.070,267.200 194.800 C 268.190 194.530,269.360 194.170,269.800 194.000 C 270.240 193.830,271.410 193.458,272.400 193.174 C 273.390 192.889,274.380 192.546,274.600 192.411 C 274.820 192.277,275.720 191.937,276.600 191.657 C 277.480 191.377,278.605 190.979,279.100 190.774 C 279.595 190.568,280.450 190.220,281.000 190.000 C 292.736 185.306,293.698 183.957,296.838 167.800 C 297.052 166.700,297.382 163.910,297.572 161.600 C 297.762 159.290,298.157 155.240,298.449 152.600 C 299.751 140.855,298.884 115.539,296.783 104.000 C 296.563 102.790,296.274 100.852,296.141 99.693 C 296.008 98.534,295.742 97.488,295.550 97.369 C 295.357 97.250,295.200 96.454,295.200 95.600 C 295.200 94.746,295.020 93.936,294.800 93.800 C 294.580 93.664,294.400 92.944,294.400 92.200 C 294.400 91.456,294.220 90.736,294.000 90.600 C 293.780 90.464,293.600 89.744,293.600 89.000 C 293.600 88.256,293.420 87.536,293.200 87.400 C 292.980 87.264,292.800 86.711,292.800 86.171 C 292.800 85.631,292.638 84.877,292.439 84.495 C 292.240 84.113,291.860 82.990,291.593 82.000 C 291.097 80.156,290.578 78.733,289.953 77.505 C 289.759 77.123,289.600 76.536,289.600 76.200 C 289.600 75.864,289.420 75.232,289.200 74.795 C 288.980 74.358,288.620 73.642,288.400 73.205 C 288.180 72.768,288.000 72.226,288.000 72.001 C 288.000 71.776,287.622 70.738,287.160 69.696 C 286.698 68.653,286.171 67.440,285.988 67.000 C 284.047 62.328,277.396 49.440,276.300 48.225 C 275.915 47.798,275.600 47.213,275.600 46.925 C 275.600 46.636,275.420 46.400,275.200 46.400 C 274.980 46.400,274.800 46.212,274.800 45.982 C 274.800 45.236,264.325 30.561,262.821 29.200 C 261.823 28.297,261.532 27.564,261.964 27.043 C 262.332 26.600,262.036 26.066,260.513 24.429 C 256.306 19.905,247.972 11.600,247.639 11.600 C 247.444 11.600,246.707 11.060,246.000 10.400 C 244.837 9.314,244.510 9.142,243.770 9.226 C 243.643 9.241,243.217 8.881,242.823 8.426 C 242.429 7.972,241.985 7.600,241.836 7.600 C 241.688 7.600,241.180 7.240,240.708 6.800 C 240.236 6.360,239.613 6.000,239.325 6.000 C 239.036 6.000,238.800 5.820,238.800 5.600 C 238.800 5.380,238.522 5.200,238.183 5.200 C 237.844 5.200,237.180 4.840,236.708 4.400 C 236.236 3.960,235.534 3.600,235.148 3.600 C 234.763 3.600,234.336 3.420,234.200 3.200 C 234.064 2.980,233.603 2.800,233.176 2.800 C 232.749 2.800,232.400 2.620,232.400 2.400 C 232.400 2.180,232.040 2.000,231.600 2.000 C 231.160 2.000,230.800 1.820,230.800 1.600 C 230.800 1.380,230.296 1.200,229.680 1.200 C 229.064 1.200,228.335 0.975,228.060 0.700 C 227.339 -0.021,207.940 -0.021,207.700 0.700 C 207.608 0.975,207.008 1.200,206.367 1.200 C 205.725 1.200,205.200 1.380,205.200 1.600 C 205.200 1.820,204.660 2.000,204.000 2.000 C 203.340 2.000,202.800 2.180,202.800 2.400 C 202.800 2.629,201.600 2.800,200.000 2.800 C 198.400 2.800,197.200 2.629,197.200 2.400 C 197.200 2.180,196.660 2.000,196.000 2.000 C 195.340 2.000,194.800 1.820,194.800 1.600 C 194.800 1.380,194.275 1.200,193.633 1.200 C 192.992 1.200,192.393 0.978,192.302 0.706 C 192.136 0.207,177.243 -0.134,173.300 0.271 M68.488 349.013 C 69.086 349.643,69.647 350.077,69.735 349.979 C 69.823 349.880,69.333 349.365,68.647 348.834 L 67.400 347.869 68.488 349.013 " stroke="none" fill="#844424" fill-rule="evenodd"></path><path id="path3" d="M66.511 70.100 C 66.052 70.595,65.165 71.467,64.539 72.038 C 63.912 72.609,62.320 74.298,61.000 75.792 C 59.680 77.285,57.475 79.674,56.100 81.100 C 54.725 82.526,53.600 83.849,53.600 84.039 C 53.600 84.230,52.790 85.231,51.800 86.265 C 50.810 87.298,50.000 88.285,50.000 88.458 C 50.000 88.632,49.391 89.383,48.646 90.128 C 47.901 90.873,47.077 91.883,46.815 92.373 C 46.328 93.282,45.838 93.927,43.900 96.210 C 43.295 96.923,42.800 97.731,42.800 98.006 C 42.800 98.281,42.484 98.797,42.097 99.153 C 41.711 99.509,41.140 100.295,40.830 100.900 C 40.519 101.505,40.115 102.000,39.932 102.000 C 39.750 102.000,39.600 102.320,39.600 102.712 C 39.600 103.103,39.240 103.683,38.800 104.000 C 38.360 104.317,38.000 104.857,38.000 105.200 C 38.000 105.543,37.650 106.076,37.221 106.385 C 36.793 106.693,36.519 107.070,36.613 107.221 C 36.707 107.373,36.432 107.901,36.004 108.396 C 35.575 108.890,35.116 109.634,34.985 110.048 C 34.854 110.461,34.578 110.800,34.373 110.800 C 34.168 110.800,34.000 111.160,34.000 111.600 C 34.000 112.040,33.820 112.400,33.600 112.400 C 33.380 112.400,33.200 112.670,33.200 113.000 C 33.200 113.330,33.054 113.600,32.875 113.600 C 32.696 113.600,32.302 114.230,32.000 115.000 C 31.698 115.770,31.349 116.401,31.225 116.401 C 31.101 116.402,30.550 117.392,30.000 118.600 C 29.450 119.808,28.865 120.798,28.700 120.799 C 28.535 120.799,28.400 121.054,28.400 121.366 C 28.400 121.677,27.876 122.982,27.236 124.266 C 26.596 125.549,25.771 127.320,25.403 128.200 C 25.034 129.080,24.568 130.113,24.366 130.495 C 24.165 130.877,24.000 131.462,24.000 131.795 C 24.000 132.128,23.820 132.400,23.600 132.400 C 23.380 132.400,23.200 132.672,23.200 133.005 C 23.200 133.338,23.020 133.968,22.800 134.405 C 22.580 134.842,22.220 135.558,22.000 135.995 C 21.780 136.432,21.600 137.062,21.600 137.395 C 21.600 137.728,21.420 138.000,21.200 138.000 C 20.980 138.000,20.800 138.540,20.800 139.200 C 20.800 139.860,20.620 140.400,20.400 140.400 C 20.180 140.400,20.000 140.760,20.000 141.200 C 20.000 141.640,19.820 142.000,19.600 142.000 C 19.380 142.000,19.200 142.540,19.200 143.200 C 19.200 143.860,19.020 144.400,18.800 144.400 C 18.580 144.400,18.400 144.839,18.400 145.376 C 18.400 145.913,18.220 146.464,18.000 146.600 C 17.780 146.736,17.600 147.276,17.600 147.800 C 17.600 148.324,17.420 148.864,17.200 149.000 C 16.980 149.136,16.800 149.676,16.800 150.200 C 16.800 150.724,16.620 151.264,16.400 151.400 C 16.180 151.536,16.000 152.166,16.000 152.800 C 16.000 153.434,15.820 154.064,15.600 154.200 C 15.380 154.336,15.200 154.977,15.200 155.624 C 15.200 156.271,15.039 156.800,14.842 156.800 C 14.645 156.800,14.382 157.475,14.257 158.300 C 13.727 161.809,13.492 162.820,13.156 163.027 C 12.960 163.148,12.800 163.831,12.800 164.544 C 12.800 165.257,12.638 166.011,12.441 166.220 C 12.244 166.429,11.983 167.320,11.861 168.200 C 11.740 169.080,11.452 170.790,11.222 172.000 C 8.716 185.168,8.297 191.329,8.514 211.825 C 8.614 221.271,8.788 229.450,8.899 230.000 C 9.011 230.550,9.231 232.170,9.388 233.600 C 9.545 235.030,9.761 236.650,9.867 237.200 C 9.974 237.750,10.150 239.100,10.258 240.200 C 10.367 241.300,10.612 242.560,10.803 243.000 C 11.150 243.799,11.442 245.404,11.857 248.800 C 11.978 249.790,12.240 250.771,12.439 250.980 C 12.637 251.189,12.800 251.943,12.800 252.656 C 12.800 253.369,12.980 254.064,13.200 254.200 C 13.420 254.336,13.600 255.067,13.600 255.824 C 13.600 256.581,13.780 257.200,14.000 257.200 C 14.220 257.200,14.400 257.920,14.400 258.800 C 14.400 259.680,14.580 260.400,14.800 260.400 C 15.020 260.400,15.200 260.940,15.200 261.600 C 15.200 262.260,15.360 262.800,15.556 262.800 C 15.752 262.800,16.027 263.475,16.168 264.300 C 16.790 267.951,16.907 268.400,17.244 268.400 C 17.440 268.400,17.606 268.805,17.613 269.300 C 17.646 271.634,18.751 271.938,20.333 270.048 C 22.703 267.218,32.428 257.477,34.588 255.771 C 35.681 254.907,38.381 252.887,40.588 251.283 C 42.794 249.678,44.889 248.127,45.241 247.837 C 45.594 247.546,48.924 245.269,52.641 242.776 C 56.359 240.284,59.490 238.144,59.600 238.021 C 59.710 237.899,60.880 237.064,62.200 236.166 C 69.370 231.289,71.534 229.630,74.180 226.978 C 76.099 225.055,79.200 220.762,79.200 220.028 C 79.200 219.793,79.380 219.600,79.600 219.600 C 79.820 219.600,80.000 219.251,80.000 218.824 C 80.000 218.397,80.180 217.936,80.400 217.800 C 80.620 217.664,80.800 217.201,80.800 216.771 C 80.800 216.341,80.965 215.677,81.167 215.295 C 81.987 213.742,82.506 208.804,82.254 204.945 C 81.879 199.186,81.122 194.522,78.367 181.000 C 78.143 179.900,77.868 178.280,77.757 177.400 C 77.646 176.520,77.393 175.440,77.197 175.000 C 77.000 174.560,76.745 173.300,76.630 172.200 C 76.516 171.100,76.233 168.850,76.003 167.200 C 74.269 154.781,74.259 141.057,75.977 130.000 C 76.199 128.570,76.485 126.590,76.613 125.600 C 76.741 124.610,77.004 123.440,77.198 123.000 C 77.392 122.560,77.639 121.570,77.746 120.800 C 77.854 120.030,78.146 118.590,78.396 117.600 C 78.645 116.610,78.940 115.260,79.052 114.600 C 79.163 113.940,79.412 113.040,79.605 112.600 C 80.899 109.642,80.862 91.599,79.559 90.220 C 79.362 90.011,79.200 89.347,79.200 88.744 C 79.200 88.141,79.020 87.536,78.800 87.400 C 78.580 87.264,78.400 86.801,78.400 86.371 C 78.400 85.941,78.236 85.277,78.035 84.895 C 77.835 84.513,77.023 82.850,76.231 81.200 C 74.734 78.081,73.684 76.173,73.000 75.333 C 72.780 75.062,71.700 73.573,70.600 72.024 C 68.452 68.998,67.811 68.696,66.511 70.100 M330.998 69.749 C 330.779 70.051,329.804 71.446,328.830 72.849 C 327.857 74.252,326.957 75.490,326.830 75.600 C 326.434 75.944,325.263 78.086,323.769 81.200 C 322.977 82.850,322.165 84.513,321.965 84.895 C 321.764 85.277,321.600 85.941,321.600 86.371 C 321.600 86.801,321.440 87.252,321.244 87.373 C 321.049 87.494,320.789 88.179,320.669 88.896 C 320.548 89.613,320.219 91.190,319.938 92.400 C 319.293 95.180,319.272 107.005,319.907 110.000 C 320.164 111.210,320.482 112.830,320.614 113.600 C 320.746 114.370,321.010 115.360,321.200 115.800 C 321.390 116.240,321.640 117.140,321.755 117.800 C 321.870 118.460,322.162 119.900,322.403 121.000 C 326.759 140.840,326.325 158.124,320.787 185.300 C 317.314 202.346,316.897 209.003,318.889 215.600 C 319.836 218.734,322.452 223.399,324.075 224.847 C 324.474 225.203,324.800 225.689,324.800 225.927 C 324.800 226.165,325.054 226.504,325.365 226.680 C 325.676 226.856,326.671 227.687,327.576 228.526 C 329.548 230.355,334.142 233.713,340.400 237.901 C 342.930 239.594,345.060 241.119,345.133 241.290 C 345.207 241.460,345.522 241.600,345.833 241.600 C 346.145 241.600,346.400 241.780,346.400 242.000 C 346.400 242.220,346.670 242.400,347.000 242.400 C 347.330 242.400,347.600 242.550,347.600 242.732 C 347.600 242.915,348.095 243.320,348.700 243.632 C 349.305 243.944,349.890 244.301,350.000 244.426 C 350.110 244.551,351.100 245.259,352.200 246.000 C 353.300 246.741,354.290 247.449,354.400 247.574 C 354.510 247.698,355.770 248.601,357.200 249.579 C 358.630 250.557,359.890 251.466,360.000 251.599 C 360.110 251.732,361.550 252.849,363.200 254.082 C 368.011 257.676,374.075 263.376,377.327 267.360 C 380.918 271.759,380.836 271.691,381.653 270.952 C 382.064 270.580,382.400 269.764,382.400 269.138 C 382.400 268.512,382.560 268.000,382.755 268.000 C 383.090 268.000,383.342 267.112,383.863 264.100 C 383.986 263.385,384.248 262.800,384.444 262.800 C 384.640 262.800,384.800 262.260,384.800 261.600 C 384.800 260.940,384.980 260.400,385.200 260.400 C 385.420 260.400,385.600 259.781,385.600 259.024 C 385.600 258.267,385.780 257.536,386.000 257.400 C 386.220 257.264,386.400 256.544,386.400 255.800 C 386.400 255.056,386.580 254.336,386.800 254.200 C 387.020 254.064,387.200 253.344,387.200 252.600 C 387.200 251.856,387.380 251.136,387.600 251.000 C 387.820 250.864,388.000 249.953,388.000 248.976 C 388.000 247.999,388.163 247.200,388.363 247.200 C 388.563 247.200,388.822 246.255,388.939 245.100 C 389.056 243.945,389.351 241.920,389.594 240.600 C 390.105 237.825,390.666 233.798,391.098 229.800 C 391.506 226.019,391.484 189.615,391.072 186.600 C 390.891 185.280,390.587 183.120,390.397 181.800 C 390.206 180.480,389.937 178.410,389.797 177.200 C 389.658 175.990,389.387 174.640,389.195 174.200 C 389.003 173.760,388.752 172.680,388.638 171.800 C 388.189 168.334,387.936 166.967,387.602 166.200 C 387.411 165.760,387.144 164.770,387.008 164.000 C 386.873 163.230,386.661 162.013,386.537 161.296 C 386.413 160.579,386.151 159.894,385.956 159.773 C 385.760 159.652,385.600 158.933,385.600 158.176 C 385.600 157.419,385.420 156.800,385.200 156.800 C 384.980 156.800,384.800 156.181,384.800 155.424 C 384.800 154.667,384.620 153.936,384.400 153.800 C 384.180 153.664,384.000 153.124,384.000 152.600 C 384.000 152.076,383.820 151.536,383.600 151.400 C 383.380 151.264,383.200 150.623,383.200 149.976 C 383.200 149.329,383.020 148.800,382.800 148.800 C 382.580 148.800,382.400 148.361,382.400 147.824 C 382.400 147.287,382.220 146.736,382.000 146.600 C 381.780 146.464,381.600 145.913,381.600 145.376 C 381.600 144.839,381.420 144.400,381.200 144.400 C 380.980 144.400,380.800 144.038,380.800 143.595 C 380.800 143.152,380.592 142.387,380.338 141.895 C 379.342 139.969,379.200 139.583,379.200 138.805 C 379.200 138.362,379.020 138.000,378.800 138.000 C 378.580 138.000,378.400 137.550,378.400 137.000 C 378.400 136.450,378.220 136.000,378.000 136.000 C 377.780 136.000,377.600 135.550,377.600 135.000 C 377.600 134.450,377.420 134.000,377.200 134.000 C 376.980 134.000,376.800 133.640,376.800 133.200 C 376.800 132.760,376.620 132.400,376.400 132.400 C 376.180 132.400,376.000 131.950,376.000 131.400 C 376.000 130.850,375.820 130.400,375.600 130.400 C 375.380 130.400,375.200 130.128,375.200 129.795 C 375.200 129.462,375.035 128.877,374.833 128.495 C 374.631 128.113,373.061 124.920,371.345 121.400 C 369.629 117.880,368.084 114.940,367.912 114.867 C 367.741 114.793,367.600 114.478,367.600 114.167 C 367.600 113.855,367.420 113.600,367.200 113.600 C 366.980 113.600,366.800 113.407,366.800 113.172 C 366.800 112.937,366.260 111.959,365.600 111.000 C 364.940 110.041,364.400 109.063,364.400 108.828 C 364.400 108.593,364.220 108.400,364.000 108.400 C 363.780 108.400,363.600 108.080,363.600 107.688 C 363.600 107.297,363.240 106.717,362.800 106.400 C 362.360 106.083,362.000 105.503,362.000 105.112 C 362.000 104.720,361.850 104.400,361.668 104.400 C 361.485 104.400,361.081 103.905,360.770 103.300 C 360.460 102.695,359.889 101.909,359.503 101.553 C 359.116 101.197,358.800 100.695,358.800 100.437 C 358.800 99.894,357.839 98.488,354.900 94.729 C 353.745 93.251,352.800 91.937,352.800 91.808 C 352.800 91.679,352.170 90.943,351.400 90.173 C 350.630 89.403,350.000 88.605,350.000 88.400 C 350.000 88.195,349.412 87.436,348.693 86.713 C 347.975 85.991,346.942 84.770,346.398 84.000 C 345.854 83.230,344.507 81.681,343.405 80.558 C 342.302 79.435,340.832 77.815,340.137 76.958 C 335.703 71.489,331.907 68.495,330.998 69.749 M239.657 202.824 C 238.699 203.937,238.031 204.964,238.173 205.107 C 238.316 205.249,238.830 204.893,239.316 204.316 C 239.802 203.739,240.525 202.878,240.923 202.402 C 241.320 201.927,241.590 201.372,241.523 201.169 C 241.455 200.967,240.616 201.712,239.657 202.824 M198.912 284.295 C 199.964 284.377,201.584 284.376,202.512 284.292 C 203.440 284.208,202.580 284.141,200.600 284.142 C 198.620 284.143,197.860 284.212,198.912 284.295 " stroke="none" fill="#fbadcf" fill-rule="evenodd"></path><path id="path4" d="M198.900 69.087 C 199.505 69.178,200.495 69.178,201.100 69.087 C 201.705 68.995,201.210 68.920,200.000 68.920 C 198.790 68.920,198.295 68.995,198.900 69.087 M214.000 76.525 C 214.000 76.594,214.585 77.179,215.300 77.825 L 216.600 79.000 215.425 77.700 C 214.330 76.488,214.000 76.216,214.000 76.525 M219.600 82.125 C 219.600 82.194,220.185 82.779,220.900 83.425 L 222.200 84.600 221.025 83.300 C 219.930 82.088,219.600 81.816,219.600 82.125 M178.175 84.100 L 177.000 85.400 178.300 84.225 C 179.015 83.579,179.600 82.994,179.600 82.925 C 179.600 82.616,179.270 82.888,178.175 84.100 M170.814 90.032 C 169.832 90.895,168.875 91.600,168.687 91.600 C 168.498 91.600,167.592 92.115,166.672 92.745 C 161.449 96.320,150.759 100.818,142.800 102.790 C 142.030 102.981,140.659 103.331,139.754 103.568 C 138.848 103.806,137.691 104.000,137.182 104.000 C 136.673 104.000,135.614 104.196,134.828 104.436 C 134.043 104.676,132.770 105.048,132.000 105.264 C 125.853 106.981,121.331 112.252,119.978 119.277 C 119.425 122.148,119.642 123.874,121.199 129.000 C 122.230 132.391,122.800 135.020,122.800 136.382 C 122.800 137.026,122.980 137.664,123.200 137.800 C 123.420 137.936,123.600 138.397,123.600 138.824 C 123.600 139.251,123.780 139.600,124.000 139.600 C 124.220 139.600,124.400 139.835,124.400 140.122 C 124.400 141.917,129.159 144.975,132.619 145.403 C 135.419 145.749,135.534 145.871,136.446 149.435 C 136.891 151.176,137.413 153.140,137.605 153.800 C 138.078 155.423,138.725 157.725,139.152 159.300 C 139.604 160.971,141.529 166.758,141.979 167.800 C 142.169 168.240,143.091 170.580,144.027 173.000 C 146.966 180.597,152.961 192.537,156.325 197.490 C 157.227 198.817,157.852 200.015,157.715 200.151 C 157.579 200.288,157.666 200.400,157.910 200.400 C 159.087 200.400,162.029 205.114,161.305 205.838 C 160.642 206.501,160.659 206.522,161.633 206.278 C 163.495 205.810,166.400 209.481,166.400 212.300 C 166.400 217.546,164.150 222.866,160.077 227.250 C 157.025 230.535,156.935 230.793,155.995 239.000 C 155.742 241.200,155.463 243.234,155.373 243.521 C 155.283 243.807,155.387 243.931,155.605 243.797 C 155.823 243.662,156.178 243.968,156.393 244.476 C 159.799 252.510,170.945 263.702,180.000 268.178 C 181.210 268.777,182.515 269.431,182.900 269.633 C 185.940 271.227,188.492 272.400,188.938 272.410 C 189.741 272.427,193.200 275.181,193.200 275.804 C 193.200 276.132,193.380 276.400,193.600 276.400 C 193.820 276.400,194.000 276.749,194.000 277.176 C 194.000 277.603,194.180 278.064,194.400 278.200 C 194.958 278.545,194.902 281.738,194.327 282.313 C 193.476 283.164,194.309 283.318,199.959 283.359 C 205.519 283.400,206.568 283.208,205.673 282.313 C 204.854 281.494,205.563 276.400,206.497 276.400 C 206.664 276.400,206.800 276.139,206.800 275.820 C 206.800 274.822,211.896 271.600,213.475 271.600 C 213.764 271.600,214.000 271.420,214.000 271.200 C 214.000 270.980,214.260 270.800,214.577 270.800 C 215.166 270.800,216.071 270.329,221.000 267.453 C 227.912 263.420,239.600 252.848,239.600 250.628 C 239.600 250.484,239.960 249.980,240.400 249.508 C 240.840 249.036,241.200 248.413,241.200 248.125 C 241.200 247.836,241.359 247.600,241.553 247.600 C 241.748 247.600,242.010 247.285,242.136 246.900 C 242.262 246.515,242.846 245.390,243.433 244.400 L 244.502 242.600 244.032 238.600 C 243.450 233.656,242.830 230.400,242.469 230.400 C 241.967 230.400,237.626 225.983,236.453 224.277 C 233.447 219.908,231.653 212.107,233.280 210.480 C 233.544 210.216,233.670 210.000,233.560 210.000 C 233.450 210.000,232.338 210.990,231.088 212.200 C 228.430 214.775,228.441 214.773,224.539 213.149 C 203.152 204.246,186.986 184.005,179.214 156.400 C 178.935 155.410,178.562 154.150,178.385 153.600 C 178.074 152.634,176.726 147.083,176.005 143.800 C 175.460 141.320,174.744 137.012,173.610 129.400 C 172.335 120.842,171.590 98.118,172.364 91.400 C 172.541 89.860,172.666 88.570,172.642 88.532 C 172.618 88.495,171.795 89.170,170.814 90.032 M264.694 104.459 C 267.645 108.095,267.579 141.309,264.612 145.838 C 263.879 146.957,263.789 147.634,264.500 146.685 C 264.775 146.318,266.170 145.766,267.600 145.459 C 273.906 144.103,276.468 141.366,277.575 134.800 C 277.854 133.150,278.234 131.350,278.420 130.800 C 282.785 117.902,278.063 106.932,267.221 104.782 C 266.439 104.627,265.440 104.354,265.000 104.175 C 264.319 103.898,264.273 103.941,264.694 104.459 M158.600 206.989 C 156.238 208.113,151.977 210.000,151.802 210.000 C 151.704 210.000,150.583 210.469,149.312 211.043 C 146.851 212.153,145.065 212.932,142.800 213.882 C 133.111 217.945,124.682 225.517,120.396 234.009 C 119.166 236.445,119.624 236.153,112.200 239.227 C 110.000 240.138,103.700 243.102,98.200 245.813 C 92.700 248.525,86.220 251.585,83.800 252.614 C 75.223 256.262,71.228 258.433,66.353 262.099 C 52.881 272.229,43.530 285.346,38.335 301.400 C 37.195 304.920,36.074 307.925,35.843 308.078 C 35.342 308.411,35.789 308.977,36.303 308.660 C 36.499 308.539,36.896 307.666,37.186 306.720 C 38.354 302.912,40.068 297.742,40.475 296.800 C 40.713 296.250,41.041 295.440,41.206 295.000 C 46.202 281.611,61.449 264.056,73.000 258.390 C 73.660 258.066,74.290 257.709,74.400 257.595 C 74.605 257.384,77.085 256.186,80.100 254.842 C 81.035 254.425,82.840 253.615,84.111 253.042 C 85.382 252.469,86.537 252.000,86.678 252.000 C 86.820 252.000,91.630 249.683,97.368 246.851 C 103.105 244.019,108.475 241.409,109.300 241.051 C 110.125 240.693,111.385 240.151,112.100 239.847 C 112.815 239.542,114.253 238.912,115.296 238.447 C 116.338 237.981,117.429 237.600,117.720 237.600 C 118.530 237.600,119.882 236.174,120.655 234.503 C 124.777 225.602,133.159 218.342,145.000 213.416 C 149.510 211.540,150.892 210.945,153.400 209.804 C 157.990 207.715,159.211 207.200,159.572 207.200 C 159.781 207.200,160.064 207.020,160.200 206.800 C 160.539 206.251,160.023 206.312,158.600 206.989 M262.400 216.518 C 262.400 216.611,263.435 217.369,264.700 218.203 C 265.965 219.036,266.689 219.367,266.309 218.938 C 265.641 218.183,262.400 216.176,262.400 216.518 M271.614 223.810 C 273.036 225.356,274.282 226.564,274.381 226.495 C 274.481 226.427,273.318 225.162,271.796 223.685 L 269.028 221.000 271.614 223.810 M275.637 228.400 C 276.796 230.196,276.800 230.201,276.798 229.767 C 276.797 229.565,276.332 228.860,275.765 228.200 L 274.734 227.000 275.637 228.400 M277.215 230.600 C 277.217 230.820,277.586 231.450,278.036 232.000 C 278.579 232.664,278.715 232.731,278.440 232.200 C 277.766 230.895,277.212 230.172,277.215 230.600 M281.144 236.804 C 281.664 237.242,282.369 237.600,282.711 237.600 C 283.485 237.600,283.352 237.488,281.600 236.666 L 280.200 236.008 281.144 236.804 M285.758 238.732 C 285.917 238.989,286.219 239.200,286.428 239.200 C 286.637 239.200,287.624 239.583,288.620 240.051 C 289.616 240.519,290.518 240.815,290.625 240.709 C 290.787 240.546,289.447 239.900,286.034 238.497 C 285.671 238.347,285.572 238.432,285.758 238.732 M291.200 240.992 C 291.200 241.086,292.595 241.822,294.300 242.628 C 298.113 244.429,299.035 244.883,304.737 247.765 C 307.232 249.027,309.359 249.975,309.462 249.871 C 309.566 249.767,305.947 247.859,301.421 245.629 C 293.163 241.563,291.200 240.672,291.200 240.992 M310.000 250.190 C 310.000 250.391,311.490 251.089,316.400 253.189 C 332.440 260.051,342.791 268.422,351.777 281.800 C 355.422 287.226,359.136 294.814,361.063 300.771 C 361.662 302.625,362.213 303.961,362.287 303.739 C 362.542 302.975,359.520 294.983,357.243 290.400 C 349.000 273.812,333.135 258.883,317.800 253.285 C 317.140 253.044,315.162 252.206,313.404 251.423 C 309.973 249.895,310.000 249.905,310.000 250.190 M153.701 263.400 C 153.705 264.280,153.787 264.593,153.883 264.095 C 153.979 263.598,153.975 262.878,153.875 262.495 C 153.775 262.113,153.696 262.520,153.701 263.400 M153.301 274.200 C 153.305 275.080,153.387 275.393,153.483 274.895 C 153.579 274.398,153.575 273.678,153.475 273.295 C 153.375 272.913,153.296 273.320,153.301 274.200 M362.428 305.276 C 362.413 305.868,362.580 306.464,362.800 306.600 C 363.278 306.895,363.278 306.111,362.800 305.000 C 362.493 304.286,362.453 304.315,362.428 305.276 M363.206 307.471 C 363.218 308.084,363.955 308.978,364.226 308.707 C 364.374 308.559,364.204 308.147,363.848 307.790 C 363.491 307.434,363.203 307.291,363.206 307.471 " stroke="none" fill="#fba777" fill-rule="evenodd"></path><path id="path5" d="M243.227 246.060 C 236.802 257.641,226.134 266.604,210.725 273.366 C 206.764 275.105,204.936 280.361,206.965 284.176 C 211.854 293.372,222.099 306.189,226.130 308.153 C 232.952 311.477,245.052 311.025,245.778 307.419 C 246.063 306.001,246.102 261.554,245.818 260.744 C 245.714 260.445,245.439 257.230,245.208 253.600 C 244.977 249.970,244.654 246.397,244.490 245.660 L 244.192 244.321 243.227 246.060 M178.200 269.460 C 168.085 271.570,159.668 277.808,155.571 286.229 L 154.000 289.458 154.000 297.273 C 154.000 301.572,154.109 305.886,154.243 306.862 L 154.486 308.636 157.387 309.518 C 165.261 311.912,173.774 309.810,179.246 304.120 C 182.065 301.188,193.210 284.334,193.663 282.318 C 194.571 278.278,192.889 275.085,188.863 273.203 C 187.398 272.519,184.976 271.338,183.480 270.579 C 180.890 269.266,180.017 269.081,178.200 269.460 " stroke="none" fill="#dcebfa" fill-rule="evenodd"></path><path id="path6" d="M137.200 27.364 C 137.200 27.674,136.435 28.888,135.500 30.062 C 134.565 31.235,132.680 33.727,131.312 35.598 C 129.943 37.469,128.676 39.180,128.495 39.400 C 126.826 41.434,119.600 53.228,119.600 53.918 C 119.600 54.347,120.303 53.439,121.162 51.900 C 123.209 48.235,123.765 47.304,124.848 45.730 C 125.482 44.809,126.000 43.878,126.000 43.661 C 126.000 43.444,126.145 43.207,126.321 43.133 C 126.498 43.060,127.748 41.380,129.100 39.400 C 130.452 37.420,132.917 34.100,134.579 32.021 C 137.138 28.820,138.230 26.800,137.400 26.800 C 137.290 26.800,137.200 27.054,137.200 27.364 M261.867 27.067 C 261.454 27.479,261.541 27.785,262.312 28.625 C 265.069 31.627,274.800 45.152,274.800 45.982 C 274.800 46.212,274.980 46.400,275.200 46.400 C 275.420 46.400,275.600 46.636,275.600 46.925 C 275.600 47.213,275.915 47.798,276.300 48.225 C 277.396 49.440,284.047 62.328,285.988 67.000 C 286.171 67.440,286.698 68.653,287.160 69.696 C 287.622 70.738,288.000 71.776,288.000 72.001 C 288.000 72.226,288.180 72.768,288.400 73.205 C 288.620 73.642,288.980 74.358,289.200 74.795 C 289.420 75.232,289.600 75.864,289.600 76.200 C 289.600 76.536,289.759 77.123,289.953 77.505 C 290.578 78.733,291.097 80.156,291.593 82.000 C 291.860 82.990,292.240 84.113,292.439 84.495 C 292.638 84.877,292.800 85.631,292.800 86.171 C 292.800 86.711,292.980 87.264,293.200 87.400 C 293.420 87.536,293.600 88.256,293.600 89.000 C 293.600 89.744,293.780 90.464,294.000 90.600 C 294.220 90.736,294.400 91.456,294.400 92.200 C 294.400 92.944,294.580 93.664,294.800 93.800 C 295.020 93.936,295.200 94.746,295.200 95.600 C 295.200 96.454,295.357 97.250,295.550 97.369 C 295.742 97.488,296.008 98.534,296.141 99.693 C 296.274 100.852,296.563 102.790,296.783 104.000 C 298.884 115.539,299.751 140.855,298.449 152.600 C 298.157 155.240,297.762 159.290,297.572 161.600 C 297.382 163.910,297.052 166.700,296.838 167.800 C 293.698 183.957,292.736 185.306,281.000 190.000 C 280.450 190.220,279.595 190.568,279.100 190.774 C 278.605 190.979,277.480 191.377,276.600 191.657 C 275.720 191.937,274.820 192.277,274.600 192.411 C 274.380 192.546,273.390 192.889,272.400 193.174 C 271.410 193.458,270.240 193.826,269.800 193.990 C 267.961 194.677,266.102 195.200,265.495 195.200 C 265.139 195.200,264.732 195.387,264.590 195.616 C 264.185 196.271,274.869 193.122,276.895 191.989 C 277.277 191.775,277.856 191.600,278.182 191.600 C 278.509 191.600,279.417 191.240,280.200 190.800 C 280.983 190.360,281.801 190.000,282.017 190.000 C 282.232 190.000,283.262 189.619,284.304 189.153 C 285.347 188.688,286.792 188.046,287.516 187.727 C 292.787 185.405,294.840 181.011,297.573 166.200 C 300.150 152.236,300.495 128.749,298.387 110.800 C 296.954 98.597,292.727 81.651,288.709 72.000 C 288.480 71.450,288.151 70.640,287.978 70.200 C 283.445 58.702,276.213 45.872,268.250 35.200 C 266.691 33.110,265.321 31.310,265.207 31.200 C 263.814 29.861,262.393 27.796,262.561 27.356 C 262.782 26.782,262.337 26.596,261.867 27.067 M116.981 58.837 C 116.629 59.518,116.412 60.145,116.499 60.232 C 116.586 60.319,116.956 59.762,117.322 58.995 C 118.144 57.270,117.859 57.138,116.981 58.837 M114.987 63.100 C 113.436 66.427,112.342 68.884,112.003 69.800 C 111.840 70.240,111.479 71.140,111.200 71.800 C 110.544 73.353,110.190 74.281,109.600 76.000 C 109.336 76.770,108.981 77.760,108.812 78.200 C 107.435 81.786,106.228 86.553,106.784 86.210 C 107.013 86.068,107.200 85.661,107.200 85.305 C 107.200 84.573,107.920 82.154,108.449 81.105 C 108.642 80.723,108.800 80.059,108.800 79.629 C 108.800 79.199,108.980 78.736,109.200 78.600 C 109.420 78.464,109.600 77.949,109.600 77.456 C 109.600 76.963,109.743 76.389,109.918 76.180 C 110.093 75.971,110.479 75.080,110.775 74.200 C 111.416 72.291,115.448 62.718,116.291 61.100 C 116.377 60.935,116.360 60.800,116.253 60.800 C 116.146 60.800,115.576 61.835,114.987 63.100 M195.800 68.896 C 191.201 70.471,190.782 70.773,184.800 76.847 C 174.637 87.167,168.770 91.661,159.200 96.457 C 157.110 97.504,155.559 98.370,155.754 98.381 C 156.346 98.413,164.607 94.171,166.536 92.844 C 167.530 92.160,168.503 91.600,168.697 91.600 C 168.891 91.600,169.398 91.285,169.825 90.900 C 170.901 89.927,172.807 88.386,174.401 87.200 C 177.267 85.067,181.579 81.040,185.672 76.676 C 195.731 65.950,204.864 66.044,214.734 76.977 C 224.818 88.146,236.928 96.067,251.230 100.849 C 253.304 101.543,255.675 102.265,256.500 102.455 C 257.325 102.645,258.765 102.983,259.700 103.207 C 260.635 103.430,262.300 103.780,263.400 103.984 C 267.498 104.743,268.696 105.090,270.856 106.147 C 279.624 110.437,282.329 119.252,278.420 130.800 C 278.234 131.350,277.854 133.150,277.575 134.800 C 276.498 141.184,273.986 143.977,268.000 145.446 L 265.800 145.986 267.737 145.796 C 271.846 145.392,276.154 142.146,277.184 138.680 C 277.459 137.756,277.845 136.587,278.042 136.081 C 278.239 135.576,278.400 134.599,278.400 133.910 C 278.400 132.647,278.517 132.197,279.991 127.773 C 280.913 125.006,281.120 118.422,280.344 116.519 C 279.139 113.563,278.710 112.780,277.147 110.669 C 276.222 109.421,275.361 108.400,275.233 108.400 C 275.105 108.399,274.476 107.948,273.835 107.397 C 271.580 105.458,268.672 104.372,262.600 103.203 C 257.258 102.174,250.315 100.158,245.812 98.330 C 243.286 97.304,237.067 94.301,236.800 93.978 C 236.690 93.845,236.015 93.481,235.300 93.170 C 234.585 92.859,234.000 92.469,234.000 92.302 C 234.000 92.136,233.807 92.000,233.572 92.000 C 233.170 92.000,229.635 89.742,229.200 89.207 C 229.090 89.072,228.370 88.529,227.600 88.000 C 226.830 87.471,226.110 86.939,226.000 86.818 C 225.890 86.697,224.500 85.547,222.910 84.262 C 221.321 82.978,218.351 80.116,216.310 77.904 C 211.048 72.198,208.488 70.000,207.108 70.000 C 206.807 70.000,206.389 69.850,206.180 69.667 C 204.851 68.505,198.353 68.022,195.800 68.896 M105.021 91.348 C 104.395 93.916,103.988 96.121,104.116 96.249 C 104.244 96.377,104.467 95.788,104.612 94.941 C 104.870 93.437,105.045 92.739,106.022 89.346 C 106.283 88.437,106.421 87.464,106.328 87.185 C 106.236 86.907,105.647 88.780,105.021 91.348 M103.422 98.622 C 103.272 99.425,103.238 100.172,103.348 100.282 C 103.458 100.392,103.672 99.825,103.822 99.022 C 103.973 98.219,104.006 97.473,103.896 97.363 C 103.786 97.253,103.573 97.819,103.422 98.622 M153.600 98.795 C 153.270 98.986,152.659 99.250,152.243 99.381 C 151.826 99.512,151.585 99.718,151.707 99.840 C 151.829 99.962,152.709 99.703,153.664 99.264 C 154.619 98.826,155.130 98.463,154.800 98.457 C 154.470 98.452,153.930 98.603,153.600 98.795 M149.600 100.400 C 149.067 100.745,149.067 100.788,149.600 100.788 C 149.930 100.788,150.470 100.613,150.800 100.400 C 151.333 100.055,151.333 100.012,150.800 100.012 C 150.470 100.012,149.930 100.187,149.600 100.400 M147.200 101.200 C 146.667 101.545,146.667 101.588,147.200 101.588 C 147.530 101.588,148.070 101.413,148.400 101.200 C 148.933 100.855,148.933 100.812,148.400 100.812 C 148.070 100.812,147.530 100.987,147.200 101.200 M102.582 102.982 C 102.429 104.002,102.402 104.935,102.522 105.055 C 102.642 105.175,102.865 104.439,103.018 103.418 C 103.171 102.398,103.198 101.465,103.078 101.345 C 102.958 101.225,102.735 101.961,102.582 102.982 M144.200 102.000 L 143.400 102.344 144.200 102.344 C 144.640 102.344,145.360 102.189,145.800 102.000 L 146.600 101.656 145.800 101.656 C 145.360 101.656,144.640 101.811,144.200 102.000 M141.000 102.800 C 140.267 103.115,140.284 103.146,141.200 103.166 C 141.750 103.178,142.470 103.013,142.800 102.800 C 143.587 102.291,142.184 102.291,141.000 102.800 M137.400 103.600 C 136.671 103.913,136.688 103.944,137.600 103.944 C 138.150 103.944,138.960 103.789,139.400 103.600 C 140.129 103.287,140.112 103.256,139.200 103.256 C 138.650 103.256,137.840 103.411,137.400 103.600 M131.919 104.772 C 128.869 105.748,126.571 107.156,124.417 109.368 C 122.064 111.785,122.601 111.731,125.098 109.300 C 127.424 107.037,131.687 104.808,133.719 104.794 C 134.203 104.791,134.870 104.613,135.200 104.400 C 136.200 103.754,134.503 103.946,131.919 104.772 M101.790 108.138 C 101.639 109.352,101.598 110.582,101.699 110.872 C 101.800 111.162,102.018 110.264,102.184 108.875 C 102.349 107.487,102.390 106.257,102.275 106.142 C 102.160 106.027,101.942 106.925,101.790 108.138 M121.916 112.488 C 120.960 113.960,119.596 117.939,119.644 119.115 C 119.674 119.854,119.854 119.522,120.208 118.071 C 120.493 116.900,121.185 115.016,121.745 113.885 C 122.819 111.714,122.913 110.952,121.916 112.488 M101.096 113.550 C 100.933 114.293,100.822 115.822,100.849 116.950 L 100.898 119.000 101.256 116.600 C 101.692 113.686,101.570 111.381,101.096 113.550 M100.259 123.300 C 99.922 126.108,99.973 144.988,100.323 146.958 C 100.475 147.815,100.600 142.370,100.600 134.858 C 100.600 127.346,100.580 121.200,100.556 121.200 C 100.531 121.200,100.398 122.145,100.259 123.300 M119.668 124.400 C 119.662 124.950,119.811 125.760,120.000 126.200 L 120.344 127.000 120.332 126.200 C 120.326 125.760,120.176 124.950,120.000 124.400 L 119.680 123.400 119.668 124.400 M120.414 127.500 C 120.459 128.464,121.948 132.837,121.972 132.075 C 122.000 131.157,120.849 127.200,120.554 127.200 C 120.469 127.200,120.406 127.335,120.414 127.500 M122.068 134.000 C 122.087 135.650,122.717 137.356,122.732 135.800 C 122.738 135.140,122.589 134.240,122.400 133.800 C 122.087 133.073,122.057 133.091,122.068 134.000 M124.152 140.700 C 124.729 141.810,126.800 143.973,126.800 143.466 C 126.800 143.316,126.260 142.628,125.600 141.937 C 124.940 141.246,124.400 140.438,124.400 140.141 C 124.400 139.843,124.215 139.600,123.990 139.600 C 123.749 139.600,123.815 140.054,124.152 140.700 M127.200 143.790 C 127.200 144.095,129.656 145.277,129.862 145.071 C 129.965 144.968,129.471 144.595,128.763 144.242 C 127.376 143.550,127.200 143.499,127.200 143.790 M131.200 145.600 C 131.750 145.776,132.794 145.938,133.519 145.960 C 134.608 145.993,134.937 146.227,135.404 147.300 C 135.808 148.231,135.971 148.373,135.978 147.800 C 135.998 146.176,134.096 145.162,131.200 145.249 L 130.200 145.280 131.200 145.600 M264.583 146.428 C 264.437 146.664,263.964 148.239,263.531 149.928 C 263.099 151.618,262.577 153.585,262.372 154.300 C 262.168 155.015,261.835 156.185,261.633 156.900 C 260.785 159.903,259.641 163.553,258.853 165.772 C 258.389 167.076,258.072 168.205,258.147 168.281 C 258.468 168.601,261.270 160.009,263.392 152.200 C 264.169 149.340,264.888 146.775,264.990 146.500 C 265.216 145.888,264.946 145.841,264.583 146.428 M136.056 149.400 C 136.056 149.840,136.211 150.560,136.400 151.000 L 136.744 151.800 136.744 151.000 C 136.744 150.560,136.589 149.840,136.400 149.400 L 136.056 148.600 136.056 149.400 M100.840 152.833 C 100.862 154.245,101.028 155.850,101.209 156.400 C 101.402 156.987,101.446 155.996,101.314 154.000 C 101.045 149.914,100.785 149.274,100.840 152.833 M136.834 152.400 C 136.846 152.730,137.011 153.360,137.200 153.800 L 137.544 154.600 137.566 153.800 C 137.578 153.360,137.413 152.730,137.200 152.400 C 136.855 151.867,136.815 151.867,136.834 152.400 M137.850 155.986 C 138.166 157.726,139.134 160.394,139.172 159.628 C 139.201 159.032,138.548 156.778,137.947 155.400 C 137.707 154.850,137.677 155.032,137.850 155.986 M101.697 160.000 C 101.696 160.990,101.832 162.340,102.000 163.000 L 102.305 164.200 102.323 163.000 C 102.333 162.340,102.197 160.990,102.020 160.000 L 101.700 158.200 101.697 160.000 M139.200 160.547 C 139.200 161.154,141.323 167.210,141.481 167.053 C 141.573 166.961,141.174 165.473,140.595 163.746 C 139.612 160.818,139.200 159.874,139.200 160.547 M102.468 165.600 C 102.487 167.250,103.117 168.956,103.132 167.400 C 103.138 166.740,102.989 165.840,102.800 165.400 C 102.487 164.673,102.457 164.691,102.468 165.600 M141.600 167.772 C 141.600 167.963,143.051 171.856,143.996 174.200 C 145.193 177.171,147.132 181.514,148.727 184.800 C 150.637 188.733,153.660 194.073,153.862 193.871 C 153.950 193.783,153.267 192.381,152.343 190.756 C 149.080 185.014,142.400 170.089,142.400 168.541 C 142.400 168.269,142.220 167.936,142.000 167.800 C 141.780 167.664,141.600 167.652,141.600 167.772 M255.997 173.322 C 253.710 179.001,253.823 178.679,254.289 178.200 C 254.781 177.695,258.155 169.222,257.947 169.014 C 257.862 168.929,256.985 170.868,255.997 173.322 M103.256 170.000 C 103.256 170.550,103.411 171.360,103.600 171.800 C 103.913 172.529,103.944 172.512,103.944 171.600 C 103.944 171.050,103.789 170.240,103.600 169.800 C 103.287 169.071,103.256 169.088,103.256 170.000 M104.006 173.608 C 103.967 177.469,108.849 186.800,110.908 186.800 C 111.131 186.800,110.406 185.892,109.296 184.782 C 107.390 182.876,106.607 181.400,105.256 177.172 C 105.005 176.386,104.797 175.396,104.794 174.972 C 104.786 173.990,104.016 172.657,104.006 173.608 M253.055 180.255 C 252.676 181.049,252.453 181.786,252.559 181.893 C 252.666 181.999,253.036 181.409,253.382 180.582 C 254.198 178.629,253.949 178.380,253.055 180.255 M250.458 185.699 C 247.877 190.787,246.205 193.741,244.418 196.373 C 242.469 199.243,242.137 200.000,242.824 200.000 C 243.104 200.000,243.220 199.887,243.082 199.749 C 242.944 199.611,243.409 198.666,244.115 197.649 C 244.821 196.632,245.599 195.440,245.844 195.000 C 246.089 194.560,246.962 193.030,247.785 191.600 C 249.899 187.925,252.480 182.747,252.291 182.558 C 252.204 182.470,251.378 183.884,250.458 185.699 M111.600 187.148 C 111.600 187.289,112.185 187.644,112.900 187.936 C 115.086 188.829,115.962 189.185,116.900 189.560 C 117.395 189.758,118.653 190.298,119.696 190.760 C 120.738 191.222,121.853 191.600,122.172 191.600 C 122.491 191.600,122.864 191.780,123.000 192.000 C 123.136 192.220,123.651 192.400,124.144 192.400 C 124.637 192.400,125.211 192.548,125.420 192.728 C 125.629 192.908,127.150 193.475,128.800 193.988 C 130.450 194.500,132.602 195.173,133.582 195.483 C 136.824 196.508,145.265 198.445,145.737 198.272 C 145.992 198.179,145.480 197.972,144.600 197.813 C 143.720 197.654,142.460 197.366,141.800 197.172 C 140.029 196.653,135.565 195.546,134.295 195.312 C 133.687 195.200,133.092 194.949,132.971 194.754 C 132.851 194.559,132.234 194.400,131.600 194.400 C 130.966 194.400,130.336 194.220,130.200 194.000 C 130.064 193.780,129.601 193.600,129.171 193.600 C 128.741 193.600,128.077 193.429,127.695 193.219 C 127.313 193.009,125.830 192.457,124.400 191.993 C 122.970 191.528,121.440 190.982,121.000 190.779 C 118.144 189.463,111.600 186.936,111.600 187.148 M154.776 195.700 C 155.246 196.415,156.029 197.674,156.516 198.497 C 157.002 199.320,157.536 199.995,157.703 199.997 C 157.870 199.999,157.169 198.740,156.145 197.200 C 155.120 195.660,154.201 194.400,154.102 194.400 C 154.003 194.400,154.306 194.985,154.776 195.700 M260.800 196.463 C 260.030 196.673,258.860 196.998,258.200 197.185 C 257.540 197.371,256.280 197.654,255.400 197.813 C 254.520 197.972,253.999 198.176,254.242 198.265 C 254.671 198.423,260.580 197.193,263.000 196.441 C 264.717 195.908,262.763 195.928,260.800 196.463 M147.600 198.800 C 149.067 199.270,150.894 199.270,149.800 198.800 C 149.360 198.611,148.460 198.462,147.800 198.468 C 146.630 198.479,146.625 198.488,147.600 198.800 M250.600 198.800 L 249.800 199.144 250.600 199.132 C 251.040 199.126,251.850 198.976,252.400 198.800 L 253.400 198.480 252.400 198.468 C 251.850 198.462,251.040 198.611,250.600 198.800 M152.000 199.600 C 152.550 199.776,153.540 199.917,154.200 199.913 L 155.400 199.905 154.200 199.600 C 153.540 199.432,152.550 199.291,152.000 199.287 L 151.000 199.280 152.000 199.600 M245.800 199.600 L 244.600 199.905 245.800 199.905 C 246.460 199.905,247.540 199.768,248.200 199.600 L 249.400 199.295 248.200 199.295 C 247.540 199.295,246.460 199.432,245.800 199.600 " stroke="none" fill="#b8666c" fill-rule="evenodd"></path><path id="path7" d="M196.349 69.549 C 192.718 70.323,190.473 71.944,184.262 78.276 C 180.928 81.675,177.210 85.209,176.000 86.128 C 172.703 88.634,172.653 88.708,172.335 91.557 C 171.591 98.240,172.357 120.991,173.610 129.400 C 174.744 137.012,175.460 141.320,176.005 143.800 C 176.726 147.083,178.074 152.634,178.385 153.600 C 178.562 154.150,178.935 155.410,179.214 156.400 C 186.986 184.005,203.152 204.246,224.539 213.149 C 228.606 214.842,228.276 214.961,233.302 209.988 C 236.138 207.181,237.970 205.656,238.337 205.797 C 238.806 205.977,238.821 205.907,238.418 205.422 C 238.007 204.927,238.269 204.427,239.962 202.482 C 241.083 201.193,242.000 199.927,242.000 199.669 C 242.000 199.411,242.150 199.200,242.332 199.200 C 242.515 199.200,242.920 198.705,243.232 198.100 C 243.545 197.495,244.115 196.651,244.500 196.225 C 244.885 195.798,245.200 195.213,245.200 194.925 C 245.200 194.636,245.336 194.400,245.502 194.400 C 245.669 194.400,246.063 193.815,246.380 193.101 C 246.696 192.386,247.665 190.570,248.533 189.064 C 249.401 187.558,251.089 184.138,252.284 181.463 C 253.479 178.788,254.699 176.060,254.996 175.400 C 255.292 174.740,255.836 173.390,256.204 172.400 C 256.573 171.410,257.026 170.240,257.211 169.800 C 257.396 169.360,257.776 168.280,258.055 167.400 C 258.335 166.520,258.707 165.629,258.882 165.420 C 259.057 165.211,259.200 164.714,259.200 164.315 C 259.200 163.916,259.362 163.277,259.559 162.895 C 259.756 162.513,260.316 160.850,260.803 159.200 C 261.289 157.550,261.848 155.787,262.044 155.281 C 262.240 154.776,262.400 153.931,262.400 153.405 C 262.400 152.878,262.560 152.348,262.756 152.227 C 262.951 152.106,263.213 151.421,263.337 150.704 C 263.882 147.547,264.151 146.547,264.670 145.752 C 266.187 143.428,267.501 125.832,266.816 117.032 C 266.005 106.627,265.256 104.000,263.097 104.000 C 262.435 104.000,261.152 103.806,260.246 103.568 C 259.341 103.331,257.970 102.979,257.200 102.786 C 248.594 100.634,238.735 96.431,232.740 92.359 C 231.477 91.502,230.254 90.800,230.022 90.800 C 229.790 90.800,229.600 90.662,229.600 90.494 C 229.600 90.326,228.880 89.744,228.000 89.200 C 227.120 88.656,226.400 88.086,226.400 87.933 C 226.400 87.779,226.003 87.528,225.519 87.374 C 225.034 87.220,221.243 83.702,217.093 79.555 C 207.358 69.827,203.583 68.006,196.349 69.549 M265.744 218.309 C 266.060 218.821,268.400 220.553,268.400 220.275 C 268.400 220.176,267.739 219.591,266.932 218.975 C 266.124 218.359,265.589 218.059,265.744 218.309 M268.841 220.900 C 268.937 220.955,269.912 221.810,271.007 222.800 L 273.000 224.600 271.217 222.700 C 270.236 221.655,269.261 220.800,269.050 220.800 C 268.839 220.800,268.745 220.845,268.841 220.900 M279.408 233.800 C 279.991 234.900,280.752 236.070,281.097 236.400 C 281.442 236.730,281.337 236.432,280.862 235.738 C 280.388 235.044,279.996 234.324,279.991 234.138 C 279.986 233.952,279.614 233.350,279.164 232.800 C 278.545 232.044,278.605 232.287,279.408 233.800 M243.505 244.296 C 242.761 245.768,241.847 247.353,241.599 247.600 C 241.489 247.710,241.144 248.295,240.832 248.900 C 240.520 249.505,240.115 250.000,239.932 250.000 C 239.750 250.000,239.600 250.200,239.600 250.444 C 239.600 251.952,230.723 260.939,225.800 264.415 C 222.305 266.883,215.401 270.800,214.545 270.800 C 214.245 270.800,214.000 270.980,214.000 271.200 C 214.000 271.420,213.764 271.600,213.475 271.600 C 211.896 271.600,206.800 274.822,206.800 275.820 C 206.800 276.139,206.664 276.400,206.497 276.400 C 205.563 276.400,204.854 281.494,205.673 282.313 C 206.568 283.208,205.519 283.400,199.959 283.359 C 194.309 283.318,193.476 283.164,194.327 282.313 C 194.902 281.738,194.958 278.545,194.400 278.200 C 194.180 278.064,194.000 277.603,194.000 277.176 C 194.000 276.749,193.820 276.400,193.600 276.400 C 193.380 276.400,193.200 276.132,193.200 275.804 C 193.200 275.181,189.741 272.427,188.938 272.410 C 188.525 272.401,186.438 271.461,184.200 270.276 C 181.872 269.044,181.131 268.736,180.945 268.922 C 180.832 269.035,182.508 269.973,184.670 271.006 C 193.232 275.098,193.800 275.682,193.800 280.396 L 193.800 283.519 195.556 283.759 C 198.010 284.096,205.316 284.049,205.805 283.694 C 206.027 283.532,206.207 282.036,206.205 280.369 C 206.198 275.901,206.883 275.157,214.319 271.557 C 225.860 265.968,233.520 259.854,239.926 251.117 C 240.847 249.861,241.600 248.745,241.600 248.637 C 241.600 248.529,242.208 247.430,242.952 246.196 L 244.304 243.952 244.738 247.876 C 246.065 259.878,246.582 297.369,245.598 310.189 C 245.361 313.275,244.992 318.140,244.778 321.000 C 244.565 323.860,244.212 327.649,243.995 329.421 C 243.778 331.192,243.600 333.421,243.600 334.375 C 243.600 335.328,243.427 337.209,243.215 338.554 C 243.003 339.899,242.644 342.530,242.418 344.400 C 241.893 348.722,240.851 356.289,240.351 359.400 C 240.140 360.720,239.800 362.970,239.597 364.400 C 239.394 365.830,238.862 368.970,238.414 371.377 C 237.966 373.785,237.600 376.020,237.600 376.344 C 237.600 377.558,238.072 376.399,238.416 374.337 C 238.612 373.162,238.966 371.120,239.202 369.800 C 241.893 354.736,244.520 333.159,245.605 317.200 C 247.187 293.948,246.971 260.994,245.144 246.898 C 244.667 243.216,244.325 242.673,243.505 244.296 M155.438 243.939 C 155.050 244.567,154.439 251.261,154.247 257.000 C 154.115 260.933,154.155 261.826,154.383 260.000 C 154.561 258.570,154.735 255.960,154.770 254.200 C 154.847 250.349,155.703 244.237,156.109 244.643 C 156.269 244.802,156.400 244.734,156.400 244.490 C 156.400 243.894,155.710 243.499,155.438 243.939 M156.760 245.800 C 157.434 247.105,157.988 247.828,157.985 247.400 C 157.983 247.180,157.614 246.550,157.164 246.000 C 156.621 245.336,156.485 245.269,156.760 245.800 M161.831 253.400 C 163.711 255.821,164.406 256.564,164.383 256.129 C 164.373 255.948,163.446 254.810,162.322 253.600 L 160.278 251.400 161.831 253.400 M166.486 258.601 C 167.523 259.679,168.433 260.480,168.507 260.381 C 168.581 260.281,167.733 259.399,166.621 258.420 L 164.600 256.640 166.486 258.601 M170.086 261.932 C 171.785 263.396,175.546 266.135,176.700 266.749 C 178.347 267.625,177.630 266.933,175.300 265.397 C 174.035 264.563,172.165 263.188,171.144 262.341 C 169.018 260.575,168.100 260.221,170.086 261.932 M153.460 273.300 C 153.211 281.311,153.492 305.205,153.840 305.567 C 153.928 305.658,154.000 296.523,154.000 285.267 C 154.000 274.010,153.938 264.800,153.863 264.800 C 153.787 264.800,153.606 268.625,153.460 273.300 M342.000 269.400 C 343.417 270.830,344.667 272.000,344.777 272.000 C 344.887 272.000,343.817 270.830,342.400 269.400 C 340.983 267.970,339.733 266.800,339.623 266.800 C 339.513 266.800,340.583 267.970,342.000 269.400 M154.006 308.833 C 154.009 310.245,154.188 313.920,154.403 317.000 C 155.354 330.599,157.288 347.784,159.219 359.800 C 159.466 361.340,159.816 363.590,159.995 364.800 C 160.290 366.794,160.605 368.599,161.600 374.000 C 161.782 374.990,162.128 376.880,162.368 378.200 C 162.973 381.534,163.430 383.830,164.000 386.400 C 164.268 387.610,164.620 389.367,164.781 390.304 C 164.942 391.241,165.218 392.141,165.394 392.304 C 165.793 392.674,165.567 391.287,164.038 384.000 C 163.369 380.810,162.536 376.580,162.188 374.600 C 161.839 372.620,161.374 370.010,161.154 368.800 C 160.933 367.590,160.584 365.475,160.377 364.100 C 160.169 362.725,159.826 360.475,159.613 359.100 C 158.696 353.174,158.332 350.459,157.184 341.000 C 156.288 333.620,155.373 323.169,154.805 313.818 C 154.360 306.493,153.995 304.217,154.006 308.833 M236.915 379.600 C 236.657 381.030,235.881 384.810,235.191 388.000 C 233.527 395.694,233.287 398.000,234.150 398.000 C 234.897 398.000,235.031 397.344,234.332 397.111 C 233.888 396.963,234.437 393.811,237.023 381.667 C 237.366 380.053,237.588 378.343,237.516 377.867 C 237.445 377.390,237.174 378.170,236.915 379.600 M165.676 393.800 C 165.665 394.460,165.801 395.360,165.979 395.800 C 166.156 396.240,166.135 396.809,165.931 397.064 C 165.704 397.349,165.706 397.618,165.935 397.760 C 166.570 398.152,166.681 396.697,166.176 394.600 C 165.805 393.059,165.691 392.875,165.676 393.800 M163.200 396.800 C 163.200 397.020,163.470 397.200,163.800 397.200 C 164.130 397.200,164.400 397.020,164.400 396.800 C 164.400 396.580,164.130 396.400,163.800 396.400 C 163.470 396.400,163.200 396.580,163.200 396.800 " stroke="none" fill="#f6be9b" fill-rule="evenodd"></path><path id="path8" d="M136.677 27.057 C 136.508 27.226,135.885 27.429,135.292 27.508 C 134.700 27.587,134.122 27.775,134.007 27.926 C 133.893 28.077,133.440 28.261,133.000 28.337 C 132.560 28.412,132.140 28.637,132.067 28.837 C 131.993 29.036,131.496 29.200,130.961 29.200 C 129.993 29.200,128.421 29.898,127.955 30.534 C 127.821 30.718,127.596 30.853,127.455 30.834 C 126.172 30.662,125.449 30.844,126.000 31.200 C 126.455 31.494,126.286 31.589,125.300 31.594 C 124.585 31.597,124.000 31.741,124.000 31.913 C 124.000 32.085,123.191 32.464,122.203 32.756 C 121.215 33.048,120.482 33.409,120.574 33.558 C 120.667 33.708,120.260 33.870,119.671 33.919 C 119.082 33.967,118.540 34.185,118.467 34.403 C 118.393 34.622,117.988 34.800,117.567 34.800 C 117.145 34.800,116.799 34.935,116.797 35.100 C 116.793 35.459,114.856 36.400,114.120 36.400 C 113.834 36.400,113.599 36.535,113.597 36.700 C 113.593 37.059,111.656 38.000,110.920 38.000 C 110.634 38.000,110.400 38.180,110.400 38.400 C 110.400 38.620,110.130 38.800,109.800 38.800 C 109.470 38.800,109.200 38.980,109.200 39.200 C 109.200 39.420,108.840 39.600,108.400 39.600 C 107.960 39.600,107.600 39.780,107.600 40.000 C 107.600 40.220,107.392 40.400,107.138 40.400 C 106.884 40.400,106.096 40.842,105.387 41.383 C 104.679 41.923,103.987 42.253,103.849 42.116 C 103.712 41.979,103.600 42.077,103.600 42.333 C 103.600 42.590,103.262 42.800,102.849 42.800 C 102.436 42.800,101.874 43.070,101.600 43.400 C 101.326 43.730,100.925 44.000,100.709 44.000 C 100.493 44.000,99.516 44.540,98.538 45.200 C 97.560 45.860,96.617 46.400,96.442 46.400 C 96.267 46.400,95.798 46.760,95.400 47.200 C 95.002 47.640,94.474 48.000,94.226 48.000 C 93.979 48.000,93.524 48.350,93.215 48.779 C 92.907 49.207,92.519 49.473,92.353 49.371 C 92.187 49.269,91.598 49.638,91.044 50.192 C 90.490 50.747,89.876 51.200,89.680 51.200 C 89.484 51.200,88.998 51.560,88.600 52.000 C 88.202 52.440,87.635 52.800,87.341 52.800 C 87.047 52.800,86.582 53.160,86.307 53.600 C 86.032 54.040,85.624 54.400,85.400 54.400 C 85.176 54.400,84.768 54.760,84.493 55.200 C 84.218 55.640,83.770 56.000,83.497 56.000 C 82.813 56.001,80.753 57.820,81.074 58.140 C 81.343 58.410,80.610 58.552,79.646 58.417 C 79.287 58.367,79.179 58.569,79.341 58.991 C 79.501 59.408,79.432 59.543,79.149 59.369 C 78.906 59.218,78.233 59.564,77.654 60.137 C 75.593 62.173,74.400 63.233,74.400 63.029 C 74.400 62.914,73.595 63.626,72.611 64.611 C 71.626 65.595,70.636 66.400,70.411 66.400 C 70.185 66.400,70.000 66.754,70.000 67.187 C 70.000 67.690,69.802 67.899,69.452 67.764 C 69.150 67.649,68.791 67.846,68.654 68.202 C 68.505 68.591,68.204 68.731,67.903 68.553 C 67.626 68.389,67.963 68.839,68.652 69.554 C 69.341 70.269,70.598 71.877,71.447 73.127 C 72.295 74.377,73.082 75.490,73.195 75.600 C 73.588 75.983,74.801 78.220,76.231 81.200 C 77.023 82.850,77.835 84.513,78.035 84.895 C 78.236 85.277,78.400 85.941,78.400 86.371 C 78.400 86.801,78.580 87.264,78.800 87.400 C 79.020 87.536,79.200 88.141,79.200 88.744 C 79.200 89.347,79.362 90.011,79.559 90.220 C 80.862 91.599,80.899 109.642,79.605 112.600 C 79.412 113.040,79.163 113.940,79.052 114.600 C 78.940 115.260,78.645 116.610,78.396 117.600 C 78.146 118.590,77.854 120.030,77.746 120.800 C 77.639 121.570,77.392 122.560,77.198 123.000 C 77.004 123.440,76.741 124.610,76.613 125.600 C 76.485 126.590,76.199 128.570,75.977 130.000 C 74.259 141.057,74.269 154.781,76.003 167.200 C 76.233 168.850,76.516 171.100,76.630 172.200 C 76.745 173.300,77.000 174.560,77.197 175.000 C 77.393 175.440,77.646 176.520,77.757 177.400 C 77.868 178.280,78.143 179.900,78.367 181.000 C 78.591 182.100,78.960 183.945,79.187 185.100 C 79.414 186.255,79.787 188.145,80.016 189.300 C 82.607 202.392,83.023 211.780,81.167 215.295 C 80.965 215.677,80.800 216.341,80.800 216.771 C 80.800 217.201,80.620 217.664,80.400 217.800 C 80.180 217.936,80.000 218.397,80.000 218.824 C 80.000 219.251,79.820 219.600,79.600 219.600 C 79.380 219.600,79.200 219.793,79.200 220.028 C 79.200 220.762,76.099 225.055,74.180 226.978 C 71.534 229.630,69.370 231.289,62.200 236.166 C 60.880 237.064,59.710 237.899,59.600 238.021 C 59.490 238.144,56.359 240.284,52.641 242.776 C 48.924 245.269,45.594 247.546,45.241 247.837 C 44.889 248.127,42.794 249.678,40.588 251.283 C 34.113 255.991,32.881 257.055,27.200 262.847 C 18.937 271.271,18.262 272.076,18.769 272.895 C 19.006 273.277,19.200 273.952,19.200 274.395 C 19.200 274.838,19.380 275.200,19.600 275.200 C 19.820 275.200,20.000 275.560,20.000 276.000 C 20.000 276.440,20.180 276.800,20.400 276.800 C 20.620 276.800,20.800 277.340,20.800 278.000 C 20.800 278.660,20.980 279.200,21.200 279.200 C 21.420 279.200,21.600 279.549,21.600 279.976 C 21.600 280.403,21.780 280.864,22.000 281.000 C 22.220 281.136,22.400 281.687,22.400 282.224 C 22.400 282.761,22.580 283.200,22.800 283.200 C 23.020 283.200,23.200 283.560,23.200 284.000 C 23.200 284.440,23.380 284.800,23.600 284.800 C 23.820 284.800,24.000 285.239,24.000 285.776 C 24.000 286.313,24.180 286.864,24.400 287.000 C 24.620 287.136,24.800 287.607,24.800 288.047 C 24.800 288.487,24.980 288.736,25.200 288.600 C 25.420 288.464,25.600 288.633,25.600 288.976 C 25.600 289.319,25.780 289.600,26.000 289.600 C 26.220 289.600,26.400 289.791,26.400 290.024 C 26.400 290.257,26.175 290.312,25.900 290.147 C 25.501 289.907,25.500 289.971,25.897 290.460 C 26.170 290.797,26.275 291.192,26.130 291.337 C 25.985 291.482,26.137 291.600,26.467 291.600 C 26.797 291.600,27.069 291.825,27.072 292.100 C 27.080 292.906,28.787 296.400,29.173 296.400 C 29.366 296.400,29.431 296.760,29.316 297.200 C 29.199 297.647,29.304 298.000,29.553 298.000 C 29.799 298.000,30.000 298.248,30.000 298.551 C 30.000 298.854,30.259 299.317,30.576 299.580 C 30.893 299.843,31.054 300.315,30.933 300.629 C 30.794 300.991,30.974 301.200,31.424 301.200 C 31.814 301.200,32.019 301.315,31.878 301.455 C 31.738 301.595,31.978 302.208,32.412 302.817 C 32.845 303.425,33.200 304.211,33.200 304.562 C 33.200 304.913,33.380 305.200,33.600 305.200 C 33.820 305.200,34.000 305.439,34.000 305.730 C 34.000 306.282,35.891 308.263,36.137 307.968 C 36.213 307.876,37.206 304.920,38.341 301.400 C 43.537 285.295,52.821 272.275,66.379 262.080 C 71.226 258.435,75.235 256.256,83.800 252.614 C 86.220 251.585,92.700 248.525,98.200 245.815 C 103.700 243.104,109.820 240.213,111.800 239.391 C 113.780 238.568,116.168 237.568,117.108 237.167 C 118.184 236.708,119.071 235.967,119.508 235.165 C 124.740 225.546,133.186 217.546,141.600 214.241 C 142.590 213.852,143.985 213.279,144.700 212.967 C 145.415 212.655,146.585 212.149,147.300 211.842 C 148.015 211.535,149.500 210.886,150.600 210.400 C 151.700 209.914,153.140 209.286,153.800 209.004 C 154.460 208.723,155.853 208.112,156.896 207.647 C 157.938 207.181,158.928 206.799,159.096 206.799 C 159.263 206.798,160.001 206.431,160.735 205.983 L 162.071 205.169 160.144 202.884 C 157.689 199.973,157.754 200.013,155.477 200.006 C 154.420 200.003,152.800 199.829,151.877 199.621 C 150.955 199.412,148.580 198.942,146.600 198.575 C 142.680 197.850,136.207 196.308,133.503 195.456 C 132.566 195.161,130.450 194.500,128.800 193.988 C 127.150 193.475,125.629 192.908,125.420 192.728 C 125.211 192.548,124.637 192.400,124.144 192.400 C 123.651 192.400,123.136 192.220,123.000 192.000 C 122.864 191.780,122.491 191.600,122.172 191.600 C 121.853 191.600,120.738 191.222,119.696 190.760 C 118.653 190.298,117.395 189.758,116.900 189.560 C 115.962 189.185,115.086 188.829,112.900 187.936 C 112.185 187.644,111.600 187.269,111.600 187.102 C 111.600 186.936,111.353 186.800,111.051 186.800 C 108.882 186.800,105.565 180.899,104.185 174.584 C 103.611 171.959,103.411 170.932,102.378 165.300 C 100.042 152.569,99.429 125.691,101.190 113.200 C 101.391 111.770,101.763 109.070,102.015 107.200 C 102.504 103.581,104.104 94.990,104.846 92.000 C 105.964 87.497,108.146 79.895,108.807 78.200 C 108.979 77.760,109.336 76.770,109.600 76.000 C 109.864 75.230,110.243 74.195,110.440 73.700 C 110.638 73.205,110.956 72.395,111.146 71.900 C 112.545 68.268,113.474 66.249,117.447 58.217 C 119.401 54.267,121.790 49.767,122.755 48.217 C 125.104 44.446,128.016 39.960,128.459 39.430 C 128.657 39.193,130.209 37.131,131.909 34.847 C 133.609 32.562,135.515 30.013,136.145 29.183 C 137.130 27.884,137.556 26.177,136.677 27.057 M262.586 27.222 C 262.296 27.692,262.688 28.382,264.200 30.064 C 269.940 36.453,277.902 48.895,283.357 60.000 C 285.863 65.102,286.668 66.878,287.978 70.200 C 288.151 70.640,288.480 71.450,288.709 72.000 C 295.380 88.022,299.954 113.517,299.977 134.800 C 299.985 141.926,298.519 161.076,297.573 166.200 C 294.840 181.011,292.787 185.405,287.516 187.727 C 286.792 188.046,285.347 188.688,284.304 189.153 C 283.262 189.619,282.232 190.000,282.017 190.000 C 281.801 190.000,280.983 190.360,280.200 190.800 C 279.417 191.240,278.509 191.600,278.182 191.600 C 277.856 191.600,277.277 191.775,276.895 191.989 C 276.050 192.461,267.734 195.173,263.600 196.323 C 258.848 197.647,248.500 199.660,245.004 199.942 C 242.333 200.158,241.786 200.321,241.668 200.938 C 241.590 201.344,241.228 202.034,240.863 202.472 C 240.498 202.909,239.805 203.736,239.323 204.309 C 238.482 205.307,238.437 206.000,239.212 206.000 C 239.412 206.000,240.617 206.469,241.888 207.043 C 243.160 207.617,244.785 208.337,245.500 208.643 C 246.215 208.949,247.430 209.470,248.200 209.800 C 248.970 210.130,250.230 210.670,251.000 211.000 C 251.770 211.330,253.030 211.870,253.800 212.200 C 264.266 216.685,268.071 219.135,273.014 224.572 C 275.729 227.558,279.093 232.252,280.259 234.682 C 281.030 236.288,281.190 236.403,284.600 237.792 C 290.510 240.201,301.244 245.175,304.400 246.969 C 306.103 247.937,313.177 251.220,318.000 253.281 C 328.340 257.700,338.302 264.533,344.200 271.253 C 347.533 275.050,348.256 275.904,348.907 276.813 C 349.296 277.356,350.411 278.873,351.385 280.184 C 352.358 281.496,353.385 283.026,353.665 283.584 C 353.946 284.143,354.642 285.320,355.213 286.200 C 356.452 288.111,358.058 291.467,360.094 296.400 C 360.321 296.950,360.656 297.760,360.837 298.200 C 361.345 299.431,362.623 303.564,363.217 305.900 C 363.511 307.055,363.852 307.997,363.976 307.994 C 364.404 307.982,365.003 307.395,365.500 306.500 C 366.741 304.265,367.043 303.792,367.700 303.045 C 368.085 302.607,368.400 302.013,368.400 301.725 C 368.400 301.436,368.580 301.200,368.800 301.200 C 369.020 301.200,369.200 300.840,369.200 300.400 C 369.200 299.960,369.380 299.600,369.600 299.600 C 369.820 299.600,370.000 299.240,370.000 298.800 C 370.000 298.360,370.180 298.000,370.400 298.000 C 370.620 298.000,370.800 297.640,370.800 297.200 C 370.800 296.760,370.991 296.400,371.224 296.400 C 371.457 296.400,371.545 296.235,371.420 296.032 C 371.295 295.830,371.482 295.375,371.835 295.022 C 372.189 294.669,372.376 294.114,372.251 293.790 C 372.115 293.435,372.259 293.200,372.613 293.200 C 372.936 293.200,373.200 292.840,373.200 292.400 C 373.200 291.960,373.380 291.600,373.600 291.600 C 373.820 291.600,374.006 291.285,374.013 290.900 C 374.020 290.515,374.290 289.851,374.613 289.424 C 374.936 288.996,375.200 288.231,375.200 287.724 C 375.200 287.216,375.380 286.800,375.600 286.800 C 375.820 286.800,376.000 286.350,376.000 285.800 C 376.000 285.250,376.180 284.800,376.400 284.800 C 376.620 284.800,376.800 284.440,376.800 284.000 C 376.800 283.560,376.980 283.200,377.200 283.200 C 377.420 283.200,377.600 282.660,377.600 282.000 C 377.600 281.340,377.780 280.800,378.000 280.800 C 378.220 280.800,378.400 280.440,378.400 280.000 C 378.400 279.560,378.580 279.200,378.800 279.200 C 379.020 279.200,379.200 278.660,379.200 278.000 C 379.200 277.340,379.380 276.800,379.600 276.800 C 379.820 276.800,380.000 276.440,380.000 276.000 C 380.000 275.560,380.180 275.200,380.400 275.200 C 380.620 275.200,380.800 274.761,380.800 274.224 C 380.800 273.687,380.980 273.136,381.200 273.000 C 381.420 272.864,381.600 272.393,381.600 271.953 C 381.600 271.513,381.438 271.253,381.240 271.375 C 380.897 271.587,380.163 270.835,377.327 267.360 C 374.075 263.376,368.011 257.676,363.200 254.082 C 361.550 252.849,360.110 251.732,360.000 251.599 C 359.890 251.466,358.630 250.557,357.200 249.579 C 355.770 248.601,354.510 247.698,354.400 247.574 C 354.290 247.449,353.300 246.741,352.200 246.000 C 351.100 245.259,350.110 244.551,350.000 244.426 C 349.890 244.301,349.305 243.944,348.700 243.632 C 348.095 243.320,347.600 242.915,347.600 242.732 C 347.600 242.550,347.330 242.400,347.000 242.400 C 346.670 242.400,346.400 242.220,346.400 242.000 C 346.400 241.780,346.145 241.600,345.833 241.600 C 345.522 241.600,345.207 241.460,345.133 241.290 C 345.060 241.119,342.930 239.594,340.400 237.901 C 334.142 233.713,329.548 230.355,327.576 228.526 C 326.671 227.687,325.676 226.856,325.365 226.680 C 325.054 226.504,324.800 226.165,324.800 225.927 C 324.800 225.689,324.474 225.203,324.075 224.847 C 322.452 223.399,319.836 218.734,318.889 215.600 C 316.897 209.003,317.314 202.346,320.787 185.300 C 326.325 158.124,326.759 140.840,322.403 121.000 C 322.162 119.900,321.870 118.460,321.755 117.800 C 321.640 117.140,321.390 116.240,321.200 115.800 C 321.010 115.360,320.746 114.370,320.614 113.600 C 320.482 112.830,320.164 111.210,319.907 110.000 C 319.272 107.005,319.293 95.180,319.938 92.400 C 320.219 91.190,320.548 89.613,320.669 88.896 C 320.789 88.179,321.049 87.494,321.244 87.373 C 321.440 87.252,321.600 86.801,321.600 86.371 C 321.600 85.941,321.764 85.277,321.965 84.895 C 322.165 84.513,322.977 82.850,323.769 81.200 C 325.263 78.086,326.434 75.944,326.830 75.600 C 326.957 75.490,327.806 74.320,328.719 73.000 C 331.011 69.683,331.421 69.200,331.944 69.200 C 332.195 69.200,332.400 69.020,332.400 68.800 C 332.400 68.580,332.132 68.400,331.803 68.400 C 331.475 68.400,330.982 68.040,330.707 67.600 C 330.432 67.160,330.059 66.800,329.878 66.800 C 329.696 66.800,328.705 65.945,327.674 64.900 C 326.643 63.855,324.676 62.100,323.301 61.000 C 321.927 59.900,320.802 58.865,320.801 58.700 C 320.801 58.535,320.530 58.400,320.200 58.400 C 319.870 58.400,319.600 58.220,319.600 58.000 C 319.600 57.780,319.418 57.600,319.196 57.600 C 318.974 57.600,318.228 57.060,317.537 56.400 C 316.846 55.740,316.078 55.200,315.829 55.200 C 315.580 55.200,315.117 54.840,314.800 54.400 C 314.483 53.960,313.983 53.600,313.688 53.600 C 313.385 53.600,313.277 53.399,313.438 53.138 C 313.609 52.862,313.549 52.785,313.288 52.946 C 313.048 53.094,312.398 52.762,311.844 52.208 C 311.290 51.653,310.624 51.200,310.365 51.200 C 310.106 51.200,309.603 50.873,309.247 50.472 C 308.891 50.072,308.330 49.623,308.000 49.474 C 307.670 49.326,306.527 48.574,305.459 47.804 C 304.391 47.034,303.356 46.503,303.159 46.625 C 302.962 46.747,302.800 46.654,302.800 46.418 C 302.800 45.831,300.351 44.383,299.866 44.683 C 299.652 44.815,299.593 44.735,299.736 44.504 C 299.978 44.112,299.461 43.724,298.645 43.685 C 298.449 43.676,298.179 43.508,298.045 43.312 C 297.910 43.116,296.945 42.560,295.900 42.076 C 294.855 41.592,294.000 41.017,294.000 40.798 C 294.000 40.579,293.640 40.400,293.200 40.400 C 292.760 40.400,292.400 40.220,292.400 40.000 C 292.400 39.780,292.040 39.600,291.600 39.600 C 291.160 39.600,290.800 39.409,290.800 39.176 C 290.800 38.943,290.619 38.865,290.397 39.002 C 290.176 39.139,289.886 38.969,289.754 38.625 C 289.622 38.281,289.174 38.000,288.757 38.000 C 288.341 38.000,288.000 37.820,288.000 37.600 C 288.000 37.380,287.640 37.200,287.200 37.200 C 286.760 37.200,286.400 37.020,286.400 36.800 C 286.400 36.580,286.166 36.400,285.880 36.400 C 285.144 36.400,283.207 35.459,283.203 35.100 C 283.201 34.935,282.840 34.800,282.400 34.800 C 281.960 34.800,281.600 34.601,281.600 34.357 C 281.600 34.114,281.323 34.021,280.985 34.150 C 280.635 34.285,280.272 34.131,280.142 33.793 C 280.017 33.467,279.484 33.200,278.957 33.200 C 278.431 33.200,278.000 33.020,278.000 32.800 C 278.000 32.580,277.550 32.400,277.000 32.400 C 276.450 32.400,276.000 32.249,276.000 32.064 C 276.000 31.879,275.235 31.483,274.300 31.183 C 273.365 30.883,271.986 30.300,271.235 29.889 C 270.484 29.477,269.551 29.224,269.161 29.326 C 268.771 29.428,268.365 29.286,268.259 29.010 C 268.153 28.734,267.242 28.264,266.233 27.967 C 265.225 27.669,264.400 27.323,264.400 27.198 C 264.400 26.809,262.829 26.830,262.586 27.222 " stroke="none" fill="#f188bd" fill-rule="evenodd"></path></g></svg>